/* XPM */
static char * C:\Users\debor\Documents\[LCOM]\WizardChess_Assets\Copy of Chess _ Pieces PNG\WhiteBishop_xpm[] = {
"71 71 139 2",
"  	c None",
". 	c #000000",
"+ 	c #9F9F9F",
"@ 	c #BFBFBF",
"# 	c #888888",
"$ 	c #090909",
"% 	c #F3F3F3",
"& 	c #FFFFFF",
"* 	c #EDEDED",
"= 	c #020202",
"- 	c #D9D9D9",
"; 	c #282828",
"> 	c #F2F2F2",
", 	c #070707",
"' 	c #272727",
") 	c #080808",
"! 	c #010101",
"~ 	c #EFEFEF",
"{ 	c #1A1A1A",
"] 	c #F4F4F4",
"^ 	c #DBDBDB",
"/ 	c #5F5F5F",
"( 	c #5D5D5D",
"_ 	c #121212",
": 	c #1F1F1F",
"< 	c #0D0D0D",
"[ 	c #D7D7D7",
"} 	c #F8F8F8",
"| 	c #F5F5F5",
"1 	c #BDBDBD",
"2 	c #D2D2D2",
"3 	c #FCFCFC",
"4 	c #CFCFCF",
"5 	c #949494",
"6 	c #FBFBFB",
"7 	c #737373",
"8 	c #5A5A5A",
"9 	c #E1E1E1",
"0 	c #242424",
"a 	c #4F4F4F",
"b 	c #030303",
"c 	c #777777",
"d 	c #3B3B3B",
"e 	c #8C8C8C",
"f 	c #797979",
"g 	c #676767",
"h 	c #838383",
"i 	c #292929",
"j 	c #535353",
"k 	c #F0F0F0",
"l 	c #AAAAAA",
"m 	c #1C1C1C",
"n 	c #E6E6E6",
"o 	c #1B1B1B",
"p 	c #F1F1F1",
"q 	c #FDFDFD",
"r 	c #434343",
"s 	c #C2C2C2",
"t 	c #3F3F3F",
"u 	c #CDCDCD",
"v 	c #848484",
"w 	c #818181",
"x 	c #8D8D8D",
"y 	c #2E2E2E",
"z 	c #BABABA",
"A 	c #2B2B2B",
"B 	c #4E4E4E",
"C 	c #D0D0D0",
"D 	c #373737",
"E 	c #E9E9E9",
"F 	c #EBEBEB",
"G 	c #E8E8E8",
"H 	c #545454",
"I 	c #2F2F2F",
"J 	c #2D2D2D",
"K 	c #101010",
"L 	c #DADADA",
"M 	c #B3B3B3",
"N 	c #0E0E0E",
"O 	c #FEFEFE",
"P 	c #E2E2E2",
"Q 	c #1D1D1D",
"R 	c #191919",
"S 	c #DCDCDC",
"T 	c #313131",
"U 	c #040404",
"V 	c #6F6F6F",
"W 	c #D4D4D4",
"X 	c #0F0F0F",
"Y 	c #404040",
"Z 	c #EEEEEE",
"` 	c #E3E3E3",
" .	c #FAFAFA",
"..	c #C7C7C7",
"+.	c #DFDFDF",
"@.	c #A1A1A1",
"#.	c #C5C5C5",
"$.	c #868686",
"%.	c #515151",
"&.	c #D1D1D1",
"*.	c #222222",
"=.	c #ABABAB",
"-.	c #F6F6F6",
";.	c #7D7D7D",
">.	c #575757",
",.	c #909090",
"'.	c #8A8A8A",
").	c #454545",
"!.	c #050505",
"~.	c #363636",
"{.	c #979797",
"].	c #333333",
"^.	c #A3A3A3",
"/.	c #717171",
"(.	c #252525",
"_.	c #BEBEBE",
":.	c #D3D3D3",
"<.	c #D6D6D6",
"[.	c #D8D8D8",
"}.	c #DDDDDD",
"|.	c #DEDEDE",
"1.	c #D5D5D5",
"2.	c #B0B0B0",
"3.	c #161616",
"4.	c #9A9A9A",
"5.	c #8E8E8E",
"6.	c #1E1E1E",
"7.	c #A8A8A8",
"8.	c #A4A4A4",
"9.	c #383838",
"0.	c #B8B8B8",
"a.	c #929292",
"b.	c #8F8F8F",
"c.	c #636363",
"d.	c #959595",
"e.	c #C1C1C1",
"f.	c #AFAFAF",
"g.	c #A6A6A6",
"h.	c #303030",
"                                                                      .                                                                       ",
"                                                                . . . . . . .                                                                 ",
"                                                              . . . . . . . . .                                                               ",
"                                                            . . . . + @ # . . . .                                                             ",
"                                                          . . . $ % & & & * . . . .                                                           ",
"                                                          . . = & & & & & & - . . .                                                           ",
"                                                          . . ; & & & & & & > , . .                                                           ",
"                                                          . . ' & & & & & & % ) . .                                                           ",
"                                                          . . ! & & & & & & ~ . . .                                                           ",
"                                                          . . . { ] & & & ^ . . .                                                             ",
"                                                            . . . . / / ( . . . .                                                             ",
"                                                              . . . . . . . . .                                                               ",
"                                                              . . . . . . . . .                                                               ",
"                                                          . . . . . _ : < . . . . .                                                           ",
"                                                      . . . . . = [ } & | 1 . . . . . .                                                       ",
"                                                    . . . . _ 2 & & & & & & 3 4 . . . . .                                                     ",
"                                                . . . . . 5 & & & & & & & & & & 6 7 . . . . .                                                 ",
"                                              . . . . 8 9 & & & & & & & & & & & & & 4 0 . . . .                                               ",
"                                            . . . . 8 & & & & & & & & & & & & & & & & 3 a . . . .                                             ",
"                                          . . . b c & & & & & & & & & & & & & & & & & & & d . . . .                                           ",
"                                        . . . . e & & & & & & & & & & & & & & & & & & & & & a . . .                                           ",
"                                        . . . f & & & & & & & & & & : . ( & & & & & & & & & & g . . .                                         ",
"                                      . . . h & & & & & & & & & & & . . i & & & & & & & & & & & j . . .                                       ",
"                                    . . . . ] & & & & & & & & & & & . . ; & & & & & & & & & & & 2 . . .                                       ",
"                                    . . ! k & & & & & & & & & & & & . . ; & & & & & & & & & & & & l . . .                                     ",
"                                  . . . m & & & & & & & & n 4 4 4 4 . . o 4 4 4 4 p & & & & & & & q . . .                                     ",
"                                  . . . & & & & & & & & & . . . . . . . . . . . . r & & & & & & & & s . . .                                   ",
"                                  . . i & & & & & & & & & . . . . . . . . . . . . ! & & & & & & & & & ) . .                                   ",
"                                . . . t & & & & & & & & & u v w w h . . . x w h x [ & & & & & & & & & y . .                                   ",
"                                . . . z & & & & & & & & & & & & & & . . A & & & & & & & & & & & & & & B . . .                                 ",
"                                . . . & & & & & & & & & & & & & & & . . ; & & & & & & & & & & & & & & C . . .                                 ",
"                                . . . & & & & & & & & & & & & & & & . . ; & & & & & & & & & & & & & & 3 . . .                                 ",
"                                . . . & & & & & & & & & & & & & & & . . D & & & & & & & & & & & & & & & . . .                                 ",
"                                . . . & & & & & & & & & & & & & & & E y F & & & & & & & & & & & & & & G . . .                                 ",
"                                . . . * & & & & & & & & & & & & & & & & & & & & & & & & & & & & & & & 7 . . .                                 ",
"                                . . . H & & & & & & & & & & & & & & & & & & & & & & & & & & & & & & & I . .                                   ",
"                                  . . J & & & & & & & & & & & & & & & & & & & & & & & & & & & & & & & K . .                                   ",
"                                  . . . L & & & & & & & & & & & & & & & & & & & & & & & & & & & & & M . . .                                   ",
"                                  . . . N O & & & & & & & & & & & & & & & & & & & & & & & & & & & P . . .                                     ",
"                                    . . . Q & & & & & & & & & & & & & & & & & & & & & & & & & & & R . . .                                     ",
"                                      . . . d q & & & & & & & & & & & & & & & & & & & & & & & S T . . .                                       ",
"                                        . . . U V W & & & & & & & & & & & & & & & & & & & @ V . . . .                                         ",
"                                          . . . . . . . . . . . . . . . . . . . . . . . . . . . . .                                           ",
"                                            . . . . . . . . . . . . . . . . . . . . . . . . . . .                                             ",
"                                            . . . , X X X X X X X X X X X X X X X X X X X ! . . .                                             ",
"                                          . . . Y Z & & & & & & & & & & & & & & & & & & & ` K . . .                                           ",
"                                        . . . j  .& & & & & & & & & & & & & & & & & & & & & ` _ . . .                                         ",
"                                        . . . S & & & & & & & & & & & & & & & & & & & & & & & ... . .                                         ",
"                                      . . . @ & & & & & & & & & & & & & & & & & & & & & & & & & g . . .                                       ",
"                                      . . . - +.+.+.+.+.+.+.+.+.+.+.+.+.+.+.+.+.+.+.+.+.+.+.+.+.@.. . .                                       ",
"                                      . . . . . . . . . . . . . . . . . . . . . . . . . . . . . . . . .                                       ",
"                                    . . . . . . . . . . . . . . . . . . . . . . . . . . . . . . . . . .                                       ",
"                                    . . . . . . . . . . . . . . . . . . . . . . . . . . . . . . . . . .                                       ",
"                                    . . . ~ & & & & & & & & & & & & & & & & & & & & & & & & & & & #.. .                                       ",
"                                    . . . $.& & & & & & & & & & & & & & & & & & & & & & & & & & & t . .                                       ",
"                                      . . . %.&.& & & & & & & & & & & & & & & & & & & & & & & ..*.. . .                                       ",
"                                      . . . . . . =.~ -.& & & & & & & & & & & & & & O ] ~ ;.. . . . . .                                       ",
"                                        . . . . . . . , X X >.,.6 & & & & & L '.).X X !.. . . . . .                                           ",
"                                            . . . . . . . . . . . . . . . . . . . . . . . . . .                                               ",
"                                                  . . . . . . . . . . . . . . . . . . . . .                                                   ",
"                                                        . . . . . . . . . . . . . . .                                                         ",
"                      . . . . . . . . . . . . . . . . . . . . . . . ~.{.J . . . . . . . . . . . . . . . . . . . . . . .                       ",
"            . . . . . . . . . . . . . . . . . . . . . . . . b : ].6 & & & k : R ! . . . . . . . . . . . . . . . . . . . . . . .               ",
"        . . . . . . . . . . . . . . . . . . . . . . . X ^.~ k O & & & & & & & 3 ~ ~ /.) . . . . . . . . . . . . . . . . . . . . . .           ",
"      . . . . . . (._.4 4 4 C :.<.[.- ^ }.|.% q & & & & & & & & & & & & & & & & & & & & & & & 6 ~ |.}.^ - [ 1.2 C 4 4 4 2.3.. . . . . .       ",
"    . . . . 4.9 & & & & & & & & & & & & & & & & & & & & & & & & 3 5.8 6./ 7.& & & & & & & & & & & & & & & & & & & & & & & & & 8.< . . . .     ",
"  . . . 9.[ & &  .0.a.b.b.b.'.b.b.b.b.b.b.b.b.b.b.b.b.b.b.c.9.. . . . . . . . . t /.b.b.b.b.b.b.b.b.b.b.b.b.b.b.x b.b.b.d.e.& & & B . . . .   ",
"  . . . x f.g.3.. . . . . . . . . . . . . . . . . . . . . . . . . . . . . . . . . . . . . . . . . . . . . . . . . . . . . . . h.f.f.H . . .   ",
"  . . . . . . . . . . . . . . . . . . . . . . . . . . . . . . . . .     . . . . . . . . . . . . . . . . . . . . . . . . . . . . . . . . . .   ",
"    . . . . . . . . . .                                                                                               . . . . . . . . . .     ",
"        . . .                                                                                                                   . . .         "};
