/* XPM */
static char * C:\Users\debor\Documents\[LCOM]\WizardChess_Assets\Copy of Chess _ Pieces PNG\WhiteTower_xpm[] = {
"71 71 105 2",
"  	c None",
". 	c #000000",
"+ 	c #050505",
"@ 	c #060606",
"# 	c #070707",
"$ 	c #040404",
"% 	c #010101",
"& 	c #020202",
"* 	c #B7B7B7",
"= 	c #F0F0F0",
"- 	c #F1F1F1",
"; 	c #D9D9D9",
"> 	c #898989",
", 	c #F2F2F2",
"' 	c #343434",
") 	c #161616",
"! 	c #6F6F6F",
"~ 	c #BDBDBD",
"{ 	c #FAFAFA",
"] 	c #FDFDFD",
"^ 	c #FBFBFB",
"/ 	c #E0E0E0",
"( 	c #8F8F8F",
"_ 	c #FCFCFC",
": 	c #363636",
"< 	c #171717",
"[ 	c #737373",
"} 	c #FEFEFE",
"| 	c #FFFFFF",
"1 	c #F9F9F9",
"2 	c #404040",
"3 	c #090909",
"4 	c #CCCCCC",
"5 	c #8E8E8E",
"6 	c #030303",
"7 	c #797979",
"8 	c #969696",
"9 	c #909090",
"0 	c #929292",
"a 	c #DEDEDE",
"b 	c #BFBFBF",
"c 	c #AFAFAF",
"d 	c #A5A5A5",
"e 	c #DCDCDC",
"f 	c #656565",
"g 	c #0A0A0A",
"h 	c #0D0D0D",
"i 	c #0C0C0C",
"j 	c #0E0E0E",
"k 	c #181818",
"l 	c #C4C4C4",
"m 	c #D8D8D8",
"n 	c #A0A0A0",
"o 	c #2A2A2A",
"p 	c #E5E5E5",
"q 	c #B9B9B9",
"r 	c #111111",
"s 	c #BBBBBB",
"t 	c #282828",
"u 	c #878787",
"v 	c #818181",
"w 	c #101010",
"x 	c #080808",
"y 	c #242424",
"z 	c #C9C9C9",
"A 	c #252525",
"B 	c #D0D0D0",
"C 	c #151515",
"D 	c #9D9D9D",
"E 	c #949494",
"F 	c #959595",
"G 	c #7B7B7B",
"H 	c #E2E2E2",
"I 	c #BCBCBC",
"J 	c #414141",
"K 	c #3D3D3D",
"L 	c #F6F6F6",
"M 	c #EBEBEB",
"N 	c #C0C0C0",
"O 	c #F3F3F3",
"P 	c #F4F4F4",
"Q 	c #777777",
"R 	c #5C5C5C",
"S 	c #939393",
"T 	c #9A9A9A",
"U 	c #2F2F2F",
"V 	c #A2A2A2",
"W 	c #535353",
"X 	c #525252",
"Y 	c #9F9F9F",
"Z 	c #515151",
"` 	c #9B9B9B",
" .	c #EFEFEF",
"..	c #EEEEEE",
"+.	c #4F4F4F",
"@.	c #C5C5C5",
"#.	c #B5B5B5",
"$.	c #B6B6B6",
"%.	c #C1C1C1",
"&.	c #C3C3C3",
"*.	c #B4B4B4",
"=.	c #E3E3E3",
"-.	c #292929",
";.	c #DFDFDF",
">.	c #CBCBCB",
"                                                                                                                                              ",
"                . . . . . . . . . . . .                 . . . . . . . . . . . . . .                   . . . . . . . . . . . .                 ",
"                . . . . . . . . . . . .                 . . . . . . . . . . . . . . .               . . . . . . . . . . . . .                 ",
"                . . . + @ # # # @ . . .                 . . . $ # # # # # # # % . . .               . . . . # # # # # & . . .                 ",
"                . . . * = - - - ; . . .                 . . . > - - - - - - , ' . . .               . . . ) - - - - - ! % . .                 ",
"                . . % ~ { ] ] ^ / . . . . . . . . . . . . . . ( ] ] ] ] ] _ _ : . . . . . . . . . . . . . < ^ _ ] ] ^ [ % . .                 ",
"                . . % ~ ^ } | _ / . . . . . . . . . . . . . . ( } } | | | } _ : . . . . . . . . . . . . . ) _ } | } _ [ % . .                 ",
"                . . % ~ ^ } | ] 1 2 & % % % % % % % % % % % 3 4 _ } | | | } ] 5 . % % % % % % % % % % % 6 7 ] } | } _ [ % . .                 ",
"                . . % ~ ^ } | } } - 8 9 9 9 9 9 9 9 9 9 9 0 a } } } | | | } } } b ( 9 9 9 9 9 9 9 9 9 ( c ^ } } | } _ [ % . .                 ",
"                . . % ~ ^ } | } } ] { { { { { { { { { { { { _ } } } | | | } } } ^ { { { { { { { { { { { ^ } } } | } _ [ % . .                 ",
"                . . % ~ ^ } } } } } } } } } } } } } } } } } } } } } } } } } } } } } } } } } } } } } } } } } } } } } _ [ % . .                 ",
"                . . . d e e e e e e e e e e e e e e e e e e e e e e e e e e e e e e e e e e e e e e e e e e e e e e e f % . .                 ",
"                . . . g h h h h h h h h h h h h h h h h h h h h h h h h h h h h h h h h h h h h h h h h h h h h h h h @ . . .                 ",
"                . . . % % % & & & & & & & & & & & & & & & & & & & & & & & & & & & & & & & & & & & & & & & & & & & % % . . . .                 ",
"                . . . . . + h i i i i i i i i i i i i i i i i i i i i i i i i i i i i i i i i i i i i i i i i i j & . . . .                   ",
"                  . . . . k l m m m m m m m m m m m m m m m m m m m m m m m m m m m m m m m m m m m m m m m m m n @ . . .                     ",
"                    . . . % o p { _ _ _ _ _ _ _ _ _ _ _ _ _ _ _ _ _ _ _ _ _ _ _ _ _ _ _ _ _ _ _ _ _ _ _ _ _ ^ q g . . .                       ",
"                      . . . % r p { _ _ _ _ _ _ _ _ _ _ _ _ _ _ _ _ _ _ _ _ _ _ _ _ _ _ _ _ _ _ _ _ _ _ _ _ s . . . .                         ",
"                        . . . & t u u u u u u u u u u u u u u u u u u u u u u u u u u u u u u u u u u u u v w . . .                           ",
"                          . . . 6 @ 3 3 3 3 3 3 3 3 3 3 3 3 3 3 3 3 3 3 3 3 3 3 3 3 3 3 3 3 3 3 3 3 3 3 x + % . .                             ",
"                            . . $ y } - - - - - - - - - - - - - - - - - - - - - - - - - - - - - - - - - z x & .                               ",
"                              . % A | ] } } } } } } } } } } } } } } } } } } } } } } } } } } } } } } } ] B x % .                               ",
"                              . & A | ] | | | | | | | | | | | | | | | | | | | | | | | | | | | | | | | } B x % .                               ",
"                              . & A | ] | | | | | | | | | | | | | | | | | | | | | | | | | | | | | | | } B x % .                               ",
"                              . & A | ] | | | | | | | | | | | | | | | | | | | | | | | | | | | | | | | } B x % .                               ",
"                              . & A | ] | | | | | | | | | | | | | | | | | | | | | | | | | | | | | | | } B x % .                               ",
"                              . & A | ] | | | | | | | | | | | | | | | | | | | | | | | | | | | | | | | } B x % .                               ",
"                              . & A | ] | | | | | | | | | | | | | | | | | | | | | | | | | | | | | | | } B x % .                               ",
"                              . & A | ] | | | | | | | | | | | | | | | | | | | | | | | | | | | | | | | } B x % .                               ",
"                              . & A | ] | | | | | | | | | | | | | | | | | | | | | | | | | | | | | | | } B x % .                               ",
"                              . & A | ] | | | | | | | | | | | | | | | | | | | | | | | | | | | | | | | } B x % .                               ",
"                              . & A | ] | | | | | | | | | | | | | | | | | | | | | | | | | | | | | | | } B x % .                               ",
"                              . & A | ] | | | | | | | | | | | | | | | | | | | | | | | | | | | | | | | } B x % .                               ",
"                              . & A | ] | | | | | | | | | | | | | | | | | | | | | | | | | | | | | | | } B x % .                               ",
"                              . & A | ] | | | | | | | | | | | | | | | | | | | | | | | | | | | | | | | } B x % .                               ",
"                              . & A | ] | | | | | | | | | | | | | | | | | | | | | | | | | | | | | | | } B x % .                               ",
"                              . & A | ] | | | | | | | | | | | | | | | | | | | | | | | | | | | | | | | } B x % .                               ",
"                              . & A | ] | | | | | | | | | | | | | | | | | | | | | | | | | | | | | | | } B x % .                               ",
"                              . & A | ] | | | | | | | | | | | | | | | | | | | | | | | | | | | | | | | } B x % .                               ",
"                              . & A | ] | | | | | | | | | | | | | | | | | | | | | | | | | | | | | | | } B x % .                               ",
"                              . & A | ] | | | | | | | | | | | | | | | | | | | | | | | | | | | | | | | } B x % .                               ",
"                              . & A | ] | | | | | | | | | | | | | | | | | | | | | | | | | | | | | | | } B x % .                               ",
"                              . & A | ] | | | | | | | | | | | | | | | | | | | | | | | | | | | | | | | } B x % .                               ",
"                              . & A | ] | | | | | | | | | | | | | | | | | | | | | | | | | | | | | | | } B x % .                               ",
"                              . & A | ] | | | | | | | | | | | | | | | | | | | | | | | | | | | | | | | } B x % .                               ",
"                              . & A | _ _ _ _ _ _ _ _ _ _ _ _ _ _ _ _ _ _ _ _ _ _ _ _ _ _ _ _ _ _ _ _ _ B x % .                               ",
"                              . % C D E F F F F F F F F F F F F F F F F F F F F F F F F F F F F F F F F G $ . .                               ",
"                              . . . . . . . . . . . . . . . . . . . . . . . . . . . . . . . . . . . . . . . . .                               ",
"                            . . % t H e e e e e e e e e e e e e e e e e e e e e e e e e e e e e e e e e I g % . .                             ",
"                            . . % u ^ _ _ _ _ _ _ _ _ _ _ _ _ _ _ _ _ _ _ _ _ _ _ _ _ _ _ _ _ _ _ _ _ ^ { J . . .                             ",
"                          . . & K L _ ] ] ] ] ] ] ] ] ] ] ] ] ] ] ] ] ] ] ] ] ] ] ] ] ] ] ] ] ] ] ] ] ] _ M ) % . .                           ",
"                        . . . $ N O P P P P P P P P P P P P P P P P P P P P P P P P P P P P P P P P P P P O Q . . .                           ",
"                      . . . . % i i i i i i i i i i i i i i i i i i i i i i i i i i i i i i i i i i i i i i i . . . . .                       ",
"                    . . . . . . . . . . . . . . . . . . . . . . . . . . . . . . . . . . . . . . . . . . . . . . . . . .                       ",
"                    . . . . % % % % % % % % % % % % % % % % % % % % % % % % % % % % % % % % % % % % % % % % % % % . . . .                     ",
"                    . . . R 8 E E E E E E E E E E E E E E E E E E E E E E E E E E E E E E E E E E E E E E E E S T U . . .                     ",
"                    . . . V ] _ _ _ _ _ _ _ _ _ _ _ _ _ _ _ _ _ _ _ _ _ _ _ _ _ _ _ _ _ _ _ _ _ _ _ _ _ _ _ _ ^ } W . . .                     ",
"                    . . . n ] | | | | | | | | | | | | | | | | | | | | | | | | | | | | | | | | | | | | | | | | } } X . . .                     ",
"                    . . . n ] | | | | | | | | | | | | | | | | | | | | | | | | | | | | | | | | | | | | | | | | } } X . . .                     ",
"                    . . . Y ] ] ] ] ] ] ] ] ] ] ] ] ] ] ] ] ] ] ] ] ] ] ] ] ] ] ] ] ] ] ] ] ] ] ] ] ] ] ] ] ] _ } Z . . .                     ",
"                    . . . `  ...................................................................................- +.. . .                     ",
"        . . . . . . . . . g w w w w w w w w w w w w w w w w w w w w w w w w w w w w w w w w w w w w w w w w w w r + . . . . . . . . .         ",
"        . . . . . . . . . . . . . . . . . . . . . . . . . . . . . . . . . . . . . . . . . . . . . . . . . . . . . . . . . . . . . . .         ",
"        . . . . . . . . . . . . . . . . . . . . . . . . . . . . . . . . . . . . . . . . . . . . . . . . . . . . . . . . . . . . . . .         ",
"        . . y @.l @.@.I #.#.#.#.#.#.#.#.#.#.#.#.#.#.#.#.#.#.#.#.#.#.#.#.#.#.#.#.#.#.#.#.#.#.#.#.#.#.#.#.#.#.#.#.#.#.$.%.@.@.&.*.. . .         ",
"        . . U { ] ] ] ] ] ] ] ] ] ] ] ] ] ] ] ] ] ] ] ] ] ] ] ] ] ] ] ] ] ] ] ] ] ] ] ] ] ] ] ] ] ] ] ] ] ] ] ] ] ] ] ] ] ] _ =.. . .         ",
"        . . U { _ ] ] ] ] ] ] ] ] ] ] ] ] ] ] ] ] ] ] ] ] ] ] ] ] ] ] ] ] ] ] ] ] ] ] ] ] ] ] ] ] ] ] ] ] ] ] ] ] ] ] ] ] ] ^ H . . .         ",
"        . . -.;.;./ / / / / / / / / / / / / / / / / / / / / / / / / / / / / / / / / / / / / / / / / / / / / / / / / / / / / a >.. . .         ",
"        . . . $ $ $ $ $ $ $ $ $ $ $ $ $ $ $ $ $ $ $ $ $ $ $ $ $ $ $ $ $ $ $ $ $ $ $ $ $ $ $ $ $ $ $ $ $ $ $ $ $ $ $ $ $ $ $ $ $ . . .         ",
"        . . . . . . . . . . . . . . . . . . . . . . . . . . . . . . . . . . . . . . . . . . . . . . . . . . . . . . . . . . . . . . .         ",
"        . . . . . . . . . . . . . . . . . . . . . . . . . . . . . . . . . . . . . . . . . . . . . . . . . . . . . . . . . . . . . . .         "};
