/* XPM */
static char * C:\Users\debor\Documents\GitHub\LCOM_WizardsChess\Assets _ Buttons\Button _ Numbers Clock\four_xpm[] = {
"40 83 4 1",
" 	c None",
".	c #E5E5E5",
"+	c #E6E6E6",
"@	c #E7E7E7",
"                                        ",
"                                        ",
"                                        ",
"                                        ",
"                                        ",
"                                        ",
"                                        ",
"                                        ",
"                                        ",
"                                        ",
"                                        ",
"                                        ",
"                                        ",
"                                        ",
"                                        ",
"                                        ",
"                                        ",
"                ...........             ",
"               ++++++++++++             ",
"               ++++++++++++             ",
"               +++++++++++              ",
"                ++++++++.               ",
"                .++++++.                ",
"                +++++++                 ",
"               ++++++++                 ",
"               +++.+++.                 ",
"              .+++.+++                  ",
"              +++ +++.                  ",
"              +++ +++  ++++++++++++     ",
"             .+. +++.  ++++++++++++     ",
"             +++ +++   ++++++++++++     ",
"            ++.  +++   .+++++++++++     ",
"            .+. .++.    +++++++++.      ",
"            +.  .++      .++++++.       ",
"           +++  ++.      .+++ ++.       ",
"           +.   ++       .++  ++.       ",
"          ++.  .++       .++  ++.       ",
"          ++   .+@       .++  ++.       ",
"         @++   ++        .++. ++.       ",
"         +++  ++.        .+++.++.       ",
"         ++@ +++          ++++++        ",
"        .++  .+.            ++          ",
"        +++ .++         ++.+  .+++      ",
"       ++++ +++        .++.++.+++++     ",
"       +++.+++.        .++.+++..++++    ",
"       +++ +++         +++ +++ +++++    ",
"      +++++++.             +++ ++++     ",
"      +++++++             .+++   +      ",
"     ++++++++             +++++         ",
"     ++++++++            .+++.+.        ",
"     ++++++++            .++ ++++       ",
"     ++++++++.+        +.+++ @ +.       ",
"     .+++++++++++++++++++++.+ .+.       ",
"      +.+++++++++++++++++++. +++.       ",
"                        +++.+ ++.       ",
"                         +++  .+.       ",
"                         +++ +++.       ",
"                         .+++ ++.       ",
"                         .++++++.       ",
"                         +++.++++       ",
"                         ++++.++.       ",
"                        ++++.+++++      ",
"                       .+++++.+++++     ",
"                       ++++++++++++     ",
"                       ++++++++++++     ",
"                       .++++++++++.     ",
"                                        ",
"                                        ",
"                                        ",
"                                        ",
"                                        ",
"                                        ",
"                                        ",
"                                        ",
"                                        ",
"                                        ",
"                                        ",
"                                        ",
"                                        ",
"                                        ",
"                                        ",
"                                        ",
"                                        "};
