/* XPM */
static char * C:\Users\debor\Documents\GitHub\LCOM_WizardsChess\Assets _ Buttons\Button _ PlayersMenu\singleplayer_xpm[] = {
"108 40 2 1",
" 	c None",
".	c #000000",
"                                                                                                            ",
"                                                                                                            ",
"                                                                                                            ",
"                                                                                                            ",
"                                                                                                            ",
"                                                                                                            ",
"                                                                                                            ",
"       .                                                  .... .                                            ",
"      ...                                .                .......     .                                     ",
"     .....                              ..                .... ...    .                                     ",
"    .. ...   ..                        ...                 ... ...   ..                                     ",
"  ...   ... ....                       ...                 ... ...  ...                                     ",
" ....  ...  ....                        ..    ..           ... ...   ..    .                    ..          ",
" ...   ..    ..                         ..   .....         ... ...   ..  ....                 .....   . .   ",
" ...                                    ..  .. ...         ... ...   ..  .....           ... ... ..  .....  ",
" ...          .      .              .   ..  ..  ..        ........   ..  .  ... .....    ..  ..  ..  .. ..  ",
" .........   ..     ..   ..      ....   ..  ......        .......    ..     ...   ..    ...  ... ... .. ..  ",
"  .........  ..    .........    .....   .. .......         ...       ..   . ...   ..    ..   ....... ..     ",
"  ..   .... ...     ........   ..  ..   .. ...             ...       ..  .. ...   ...  ...   ..      ..     ",
"       ....  ..     ..    ..  ..   ..  ... ...             ..        .. ... ...   ...  ..    ..      ..     ",
"   ..  ....  ..     ..    ..  ..  ..   ... ...            ..         .. ... ...   ... ..     ..      ..     ",
"  ..   ....  ..     ..    ..  ..  ..   ... ...  ..         .         .. ... ...    .....     ..   .  ..     ",
"  ..   ...   ..    ...    ..  .   ..   ...  ..  .          .         .. ... ...    ....      ..  ..  ..     ",
"  ... ...    ..    ...    ..  .   ..   ...   ....          .        ...  .....     ....       .. .  ...     ",
"  .....      ..    ...    ..  .. ...   ...    ..                    ...  .. .      ...         ..    ...    ",
"   ...       ..    ...   ..   ......   ...                          ...            ..                       ",
"    .        ..   ....   ..     ...   ....                         .....           ..                       ",
"            ....                 ..                                               ..                        ",
"               ...               ..                                   ....       ..                         ",
"                                 ..                                  ...         ..                         ",
"                                ...                                 ...         ..                          ",
"                         ..     ..                                   .....     ..                           ",
"                        ..    ....                                     ..........                           ",
"                        .........                                                                           ",
"                        .....                                                                               ",
"                                                                                                            ",
"                                                                                                            ",
"                                                                                                            ",
"                                                                                                            ",
"                                                                                                            "};
