/* XPM */
static char * C:\Users\debor\Documents\GitHub\LCOM_WizardsChess\Assets _ Buttons\Button _ SelectedMenu_xpm[] = {
"148 40 11 1",
" 	c None",
".	c #DF5946",
"+	c #DF5947",
"@	c #E05946",
"#	c #E05947",
"$	c #E15946",
"%	c #DF5A46",
"&	c #DF5A47",
"*	c #E05A46",
"=	c #E05A47",
"-	c #E15A47",
"                                                                                                                                                    ",
"                                                                                                                                                    ",
"                                                                                                                                                    ",
"                                                                                                                                                    ",
"                                                                                                                                                    ",
"                                                                                                                                                    ",
"                                                                                                                                                    ",
"                                                                                                                                                    ",
"                                                                                                                                                    ",
"                                                                                                                                                    ",
"                                                                                                                                                    ",
"                                                                                                                                                    ",
"                                                                                                                                                    ",
"                                                                                                                                                    ",
"                                                                                                                                                    ",
"                                                                                                                                                    ",
"                                                                                                                                                    ",
"                                                  **@.&+      %%+@* %                 #-+*@+#===================%#*.====%@======&*&...@#@#=$        ",
"                       @+  @==@===&+====.#=====================================&#..===============================================================@ ",
"    @& *%==&========@========================================================================@*@=======+=@=+============#@===&#@#    @.%=&@@#..#@   ",
"      #.========.=====@==========#=========================@===========================*. #=    =                                                   ",
"                 @=#@# =======*=%#%====%@*=&*=@*=#+# @%%     -   *-= #  = *    @%@                                                                  ",
"                  .    .  .         %                                                                                                               ",
"                                                                                                                                                    ",
"                                                                                                                                                    ",
"                                                                                                                                                    ",
"                                                                                                                                                    ",
"                                                                                                                                                    ",
"                                                                                                                                                    ",
"                                                                                                                                                    ",
"                                                                                                                                                    ",
"                                                                                                                                                    ",
"                                                                                                                                                    ",
"                                                                                                                                                    ",
"                                                                                                                                                    ",
"                                                                                                                                                    ",
"                                                                                                                                                    ",
"                                                                                                                                                    ",
"                                                                                                                                                    ",
"                                                                                                                                                    "};
