/* XPM */
static char * C:\Users\debor\Documents\[LCOM]\WizardChess_Assets\Buttons\Button _ SelectedMenu_xpm[] = {
"148 40 12 1",
" 	c None",
".	c #E05A46",
"+	c #E05946",
"@	c #DF5946",
"#	c #DF5A47",
"$	c #DF5947",
"%	c #E15A46",
"&	c #DF5A46",
"*	c #E05947",
"=	c #E15A47",
"-	c #E05A47",
";	c #E15946",
"                                                                                                                                                    ",
"                                                                                                                                                    ",
"                                                                                                                                                    ",
"                                                                                                                                                    ",
"                                                                                                                                                    ",
"                                                                                                                                                    ",
"                                                                                                                                                    ",
"                                                                                                                                                    ",
"                                                                                                                                                    ",
"                                                                                                                                                    ",
"                                                                                                                                                    ",
"                                                                                                                                                    ",
"                                                                                                                                                    ",
"                                                                                                                                                    ",
"                                                                                                                                                    ",
"                                                                                                                                                    ",
"                                                                                                                                                    ",
"                                                  ..+@#$     %&&$+. &                 *=$.+$*-------------------&*.@----&+------#.#@@@+*+*-;        ",
"                       +$  +--+---#$----@*-------------------------------------#*@@---------------------------------------------------------------+ ",
"    +# .&--#--------+------------------------------------------------------------------------+.+-------$-+-$------------*+---#*+*    +@&-#++*@@*+   ",
"      *@--------@-----+----------*-------------------------+---------------------------.@ *-    -                                                   ",
"                 +-*+* -------.-&*&----&+.-#.-+.-*$* +&&  %  =   .=- *  - .    +&+                                                                  ",
"                  @    @  @         &                                                                                                               ",
"                                                                                                                                                    ",
"                                                                                                                                                    ",
"                                                                                                                                                    ",
"                                                                                                                                                    ",
"                                                                                                                                                    ",
"                                                                                                                                                    ",
"                                                                                                                                                    ",
"                                                                                                                                                    ",
"                                                                                                                                                    ",
"                                                                                                                                                    ",
"                                                                                                                                                    ",
"                                                                                                                                                    ",
"                                                                                                                                                    ",
"                                                                                                                                                    ",
"                                                                                                                                                    ",
"                                                                                                                                                    ",
"                                                                                                                                                    "};
