/* XPM */
static char * C:\Users\debor\Documents\GitHub\LCOM_WizardsChess\Assets _ Buttons\End Game_xpm[] = {
"288 67 2 1",
" 	c None",
".	c #000000",
"                                                                                                                                                                                                                                                                                                ",
"                                                                                                                                                                                                                                                                                                ",
"                                                                                                                                                                                                                                                                                                ",
"                                                                                                                                                                                                                                                                                                ",
"          .........                                                                                                                                          ...                                                                                                                                ",
"          .........                 .                                                             .                                                        .......                                                                                                                              ",
"          ..........              ...                                                             ..                                                      .........                                                                                                                             ",
"          ..........  ...............                                                             ...                                                   .............                                                                                                                           ",
"          ...........................                                                             ...                                                 ...............                                                                                                                           ",
"          ...........................                                                             ....                                               .................                                                                                                                          ",
"          ...........................                                                             .....                                             ........   .......                                                                                                                          ",
"          ...............          ..                                                             .....                                           .........    .......                                                                                                                          ",
"          ..........                                                                              ......                                         .........     .......                                                                                                                          ",
"          ..........                                                                              .......                                       ..........    ........                                                                                                                          ",
"          ..........                                                                              .......                                       ..........   .......                                                                                                                            ",
"          ..........                                                                              ........                                      .........   .......                                                                                                                             ",
"           .........                                                                              .........                                 .....................                                                                                                                               ",
"           .........                                                                              .........                                 ....................                                                                                                                                ",
"           .........                                                                              ..........                               ...................                                                                                                                                  ",
"           .........                                                                              ......                                   .................                                   ..                                                                                  ...          ",
"           .........                                                                              ......                                       ............                                  .....                                                                               .......        ",
"           .........                                                                              ......                                       ..........                                  ........                                                                            ..........       ",
"           .........                                                                              ......                                       ..........                                ...........               .                                                          ............      ",
"           .........                                                                              ......                                       ..........                               .............            .....                                                      ...... ........     ",
"           .........                                                                              ......                                       ..........                               ..............          ...  ...                                                   .......  ........    ",
"           .........                                                                              ......                                       ..........                               ...............        ...   ....                                                 .......   ........    ",
"      .... .........                                                                              ......                                       ..........                                .....    ......      .....   .....                                               .......    .......    ",
"    ....   .........            ....                   .                                          ......                                       ..........                                ...      .......             ......                            ....              .......    .......    ",
"    ....   .........        ......                    ..                                          ......                                       ..........                                 ..      .......              ......            ....         .......             .......    .......    ",
"    .....  ........      .......                     ...                                   .      ......                                       ..........                                 .       .......              ......           ......      ..........            .......    .......    ",
"    ................  ........                      .....        .....                .........   ......                                       ..........                                         .......               ......        ........     ............           .......     ......    ",
"     .......................                       ......      ........             ...........   ......                                       ..........                                         .......               ......      ...........  ..............           ...................   ",
"      .....................                       .......    ..........            ............   ......                                       ..........                                         .......                ......    .............................          ...................   ",
"       ..................                        ........  .............          .............   ......                                       ..........                                         .......                ......  ................................         ....... ...........   ",
"          ............                          .........................        ........   ...   ......                                       ..........                                  ...... .......                 ............................    .......         .......    ........   ",
"           ........                            ... ......................        ........    ..   ......                                       ..........                                 ......  .......                 .............  ...........      .......         .......        ....   ",
"           ........                           .    .............  ........       ........         ......                                    .........................                    ......   .......                 ...........     .........       .......        ........               ",
"           ........                                ..........      .......       .......          ......                                      ...........................               ......    .......                 .........        .......         ......        ........               ",
"           ........                                ........        .......       .......          ......                                       ............................             ......    .......                 ........         .......         ......        ........               ",
"           ........                               .......          .......       .......          ......                                       ..........      .............           .......    .......                .......           .......         ......        ........               ",
"           ........                               .......           ......       .......         .......                                       ..........          ...........         .......    .......                .......           .......         ......        ........               ",
"           ........                               .......          .......       .......         .......                                       ..........           ...........        .......    .......                .......           .......         ......        ........               ",
"           ........                               ......           .......       .......         .......                                       ..........           ............       .......    .......                .......           .......         ......        ........       .       ",
"           ........                               ......           .......       .......         .......                                       ..........           ............       .......    .......                .......           .......         ......        ........      ...      ",
"           ........                               ......           .......       .......         .......                                       ..........           ...... ......      .......    .......                .......           .......         ......        ........      ...      ",
"           ........                               ......           ......        .......         .......                                       ..........           ......   ....      .......    .......                .......           ......         .......        ........      ....     ",
"           ........                              .......           ......        .......         .......                                        .........           ......   ....       ......    .......                .......           ......         ......         ........     .....     ",
"           ........                              .......           ......        .......         .......                                        .........           ......  .....       .......   ........               .......           ......         ......          .......     ....      ",
"           ........                              .......           ......        .......         .......                                        .........           ...... ......       ..................               .......           ......         ......           ......     ...       ",
"           ........                              .......           ......        .......         .......                                        .........           ......              .................                .......           ......         ......            .....    ...        ",
"           ........             .......          .......          ......         .......         .......                                         ........           ......               ...............                 .......           ......         ......             .....  ....        ",
"           ............................          .......          ......         .......         .......                                         ........           ......               ........ .....                  .......           ......         ......              .........         ",
"           ............................          .......          ......         .......         ......                                           ........         ......                 ......  .....                  ......            .....          ......               .......          ",
"           .............................         .......          ......          ......       .......                                             .......         ......                 ....     ...                  .......            .....          ......                .....           ",
"           ...........................          .......           ......          .......    ........                                              ........      .......                                                .......            .....          ......                                ",
"           ........................             .......           .....             ...... .........                                                ......... .........                                                 ........           .....          ......                                ",
"           ....................                 .......           .....              ..............                                                  .................                                                 ..........         ......         .......                                ",
"          ......   .........                   .........          .....               ............                                                    ..............                                                  ............        ......        .........                               ",
"        ...        ......                     ..........         ......                ..........                                                      ............                                                   .........          ........                                               ",
"                   ..                         ...........       .......                  ......                                                           .......                                                                       ....                                                    ",
"                                             .............     .........                                                                                                                                                                                                                        ",
"                                                                                                                                                                                                                                                                                                ",
"                                                                                                                                                                                                                                                                                                ",
"                                                                                                                                                                                                                                                                                                ",
"                                                                                                                                                                                                                                                                                                ",
"                                                                                                                                                                                                                                                                                                ",
"                                                                                                                                                                                                                                                                                                "};
