/* XPM */
static char * C:\Users\debor\Documents\[LCOM]\WizardChess_Assets\Copy of Chess _ Pieces PNG\BlackBishop_xpm[] = {
"71 71 40 1",
" 	c None",
".	c #000000",
"+	c #262626",
"@	c #030303",
"#	c #5C5C5C",
"$	c #FFFFFF",
"%	c #040404",
"&	c #4C4C4C",
"*	c #4D4D4D",
"=	c #050505",
"-	c #080808",
";	c #4B4B4B",
">	c #060606",
",	c #5A5A5A",
"'	c #2F2F2F",
")	c #8F8F8F",
"!	c #212121",
"~	c #232323",
"{	c #242424",
"]	c #5F5F5F",
"^	c #848484",
"/	c #010101",
"(	c #252525",
"_	c #595959",
":	c #EDEDED",
"<	c #FCFCFC",
"[	c #FBFBFB",
"}	c #888888",
"|	c #0C0C0C",
"1	c #F6F6F6",
"2	c #E5E5E5",
"3	c #FDFDFD",
"4	c #1F1F1F",
"5	c #1B1B1B",
"6	c #AFAFAF",
"7	c #E8E8E8",
"8	c #484848",
"9	c #808080",
"0	c #7F7F7F",
"a	c #585858",
"                                                                       ",
"                                .......                                ",
"                               .........                               ",
"                              ...........                              ",
"                              ............                             ",
"                             .............                             ",
"                             .............                             ",
"                             .............                             ",
"                             .............                             ",
"                              ............                             ",
"                              ...........                              ",
"                               ..........                              ",
"                               .........                               ",
"                             .............                             ",
"                            ................                           ",
"                          ...................                          ",
"                         ......................                        ",
"                        ........................                       ",
"                       ..........................                      ",
"                      ............................                     ",
"                     ..............+@..............                    ",
"                    ..............#$$%.............                    ",
"                   ...............$$$&..............                   ",
"                   ...............$$$&...............                  ",
"                  ................$$$*...............                  ",
"                  ............=%=-$$$;>%%.............                 ",
"                 ............,$$$$$$$$$$$$-...........                 ",
"                 ............$$$$$$$$$$$$$'...........                 ",
"                 ............)$$$$$$$$$$$$-...........                 ",
"                 .............!~{+$$$]{{~..............                ",
"                ..................$$$*.................                ",
"                ..................$$$&.................                ",
"                ..................$$$;.................                ",
"                ..................^$$%.................                ",
"                ................../(%..................                ",
"                 ......................................                ",
"                 ......................................                ",
"                 .....................................                 ",
"                  ....................................                 ",
"                  ...................................                  ",
"                   ..................................                  ",
"                   .................................                   ",
"                    ...._:<<<<<<<<<<<<<<<<<<<[}....                    ",
"                     ..|1$$$$$$$$$$$$$$$$$$$$$$...                     ",
"                      ..2$$$$$$$$$$$$$$$$$$$$$3..                      ",
"                     ...-4444444444444444444445...                     ",
"                     ..............................                    ",
"                    ...............................                    ",
"                    ................................                   ",
"                   .................................                   ",
"                   |$$$$$$$$$$$$$$$$$$$$$$$$$$$$$$$6                   ",
"                   <$$$$$$$$$$$$$$$$$$$$$$$$$$$$$$$$                   ",
"                   7$$$$$$$$$$$$$$$$$$$$$$$$$$$$$$$$8                  ",
"                   !9000000000000000000000000000000a.                  ",
"                   ..................................                  ",
"                   ..................................                  ",
"                   .................................                   ",
"                    ...............................                    ",
"                     .............................                     ",
"                        ........................                       ",
"                           .................                           ",
"                         .....................                         ",
"        .......................................................        ",
"     .............................................................     ",
"    ...............................................................    ",
"  ..................................................................   ",
"  .................................................................... ",
" ..................................................................... ",
" ..................................................................... ",
" ................................      ............................... ",
"  .......                                                     .......  "};
