/* XPM */
static char * C:\Users\debor\Documents\[LCOM]\WizardChess_Assets\Copy of Chess _ Pieces PNG\BlackQueen_xpm[] = {
"71 71 174 2",
"  	c None",
". 	c #000000",
"+ 	c #010101",
"@ 	c #0F0F0F",
"# 	c #151515",
"$ 	c #1C1C1C",
"% 	c #161616",
"& 	c #101010",
"* 	c #070707",
"= 	c #262626",
"- 	c #626262",
"; 	c #8A8A8A",
"> 	c #969696",
", 	c #B8B8B8",
"' 	c #C9C9C9",
") 	c #EAEAEA",
"! 	c #F9F9F9",
"~ 	c #FEFEFE",
"{ 	c #FFFFFF",
"] 	c #FAFAFA",
"^ 	c #EFEFEF",
"/ 	c #D2D2D2",
"( 	c #BBBBBB",
"_ 	c #9B9B9B",
": 	c #8E8E8E",
"< 	c #6D6D6D",
"[ 	c #373737",
"} 	c #080808",
"| 	c #303030",
"1 	c #616161",
"2 	c #CACACA",
"3 	c #E1E1E1",
"4 	c #7D7D7D",
"5 	c #333333",
"6 	c #1E1E1E",
"7 	c #040404",
"8 	c #787878",
"9 	c #CCCCCC",
"0 	c #E5E5E5",
"a 	c #C6C6C6",
"b 	c #959595",
"c 	c #858585",
"d 	c #808080",
"e 	c #848484",
"f 	c #898989",
"g 	c #BCBCBC",
"h 	c #DBDBDB",
"i 	c #F4F4F4",
"j 	c #EEEEEE",
"k 	c #D3D3D3",
"l 	c #989898",
"m 	c #2C2C2C",
"n 	c #B3B3B3",
"o 	c #E4E4E4",
"p 	c #9F9F9F",
"q 	c #7F7F7F",
"r 	c #575757",
"s 	c #181818",
"t 	c #030303",
"u 	c #131313",
"v 	c #424242",
"w 	c #727272",
"x 	c #9C9C9C",
"y 	c #B2B2B2",
"z 	c #D7D7D7",
"A 	c #FBFBFB",
"B 	c #555555",
"C 	c #CFCFCF",
"D 	c #5E5E5E",
"E 	c #050505",
"F 	c #414141",
"G 	c #B0B0B0",
"H 	c #4C4C4C",
"I 	c #0C0C0C",
"J 	c #3F3F3F",
"K 	c #707070",
"L 	c #D6D6D6",
"M 	c #B6B6B6",
"N 	c #242424",
"O 	c #FDFDFD",
"P 	c #A0A0A0",
"Q 	c #606060",
"R 	c #C0C0C0",
"S 	c #BFBFBF",
"T 	c #0B0B0B",
"U 	c #313131",
"V 	c #818181",
"W 	c #666666",
"X 	c #111111",
"Y 	c #515151",
"Z 	c #828282",
"` 	c #646464",
" .	c #D5D5D5",
"..	c #535353",
"+.	c #1D1D1D",
"@.	c #1B1B1B",
"#.	c #3A3A3A",
"$.	c #B5B5B5",
"%.	c #D4D4D4",
"&.	c #DEDEDE",
"*.	c #C1C1C1",
"=.	c #A5A5A5",
"-.	c #191919",
";.	c #979797",
">.	c #F5F5F5",
",.	c #DADADA",
"'.	c #FCFCFC",
").	c #E7E7E7",
"!.	c #999999",
"~.	c #5F5F5F",
"{.	c #929292",
"].	c #A8A8A8",
"^.	c #DCDCDC",
"/.	c #E8E8E8",
"(.	c #ABABAB",
"_.	c #7B7B7B",
":.	c #6E6E6E",
"<.	c #F6F6F6",
"[.	c #939393",
"}.	c #060606",
"|.	c #585858",
"1.	c #686868",
"2.	c #F7F7F7",
"3.	c #797979",
"4.	c #5D5D5D",
"5.	c #171717",
"6.	c #2A2A2A",
"7.	c #464646",
"8.	c #909090",
"9.	c #9A9A9A",
"0.	c #919191",
"a.	c #888888",
"b.	c #757575",
"c.	c #252525",
"d.	c #222222",
"e.	c #4F4F4F",
"f.	c #E0E0E0",
"g.	c #C7C7C7",
"h.	c #020202",
"i.	c #B4B4B4",
"j.	c #272727",
"k.	c #F1F1F1",
"l.	c #F2F2F2",
"m.	c #4A4A4A",
"n.	c #B9B9B9",
"o.	c #C4C4C4",
"p.	c #434343",
"q.	c #393939",
"r.	c #CECECE",
"s.	c #838383",
"t.	c #ACACAC",
"u.	c #4B4B4B",
"v.	c #6A6A6A",
"w.	c #DFDFDF",
"x.	c #4D4D4D",
"y.	c #E3E3E3",
"z.	c #A3A3A3",
"A.	c #5B5B5B",
"B.	c #343434",
"C.	c #0E0E0E",
"D.	c #A9A9A9",
"E.	c #C2C2C2",
"F.	c #D9D9D9",
"G.	c #B1B1B1",
"H.	c #737373",
"I.	c #1F1F1F",
"J.	c #0A0A0A",
"K.	c #141414",
"L.	c #484848",
"M.	c #A1A1A1",
"N.	c #AFAFAF",
"O.	c #BABABA",
"P.	c #A6A6A6",
"Q.	c #868686",
"                                                                                                                                              ",
"                                                                                                                                              ",
"                                                                                                                                              ",
"                                                                    . . . .                                                                   ",
"                                                                . . . . . . .                                                                 ",
"                                    . . . .                   . . . . . . . . .                   . . . . .                                   ",
"                                . . . . . . . .               . . . . . . . . .                 . . . . . . .                                 ",
"                                . . . . . . . .               . . . . . . . . . .             . . . . . . . . .                               ",
"                              . . . . . . . . . .             . . . . . . . . . .           . . . . . . . . . .                               ",
"                              . . . . . . . . . .             . . . . . . . . .             . . . . . . . . . .                               ",
"          .                   . . . . . . . . . .             . . . . . . . . .             . . . . . . . . . .                   . .         ",
"    . . . . . . .             . . . . . . . . . .               . . . . . . .               . . . . . . . . . .               . . . . . .     ",
"  . . . . . . . .               . . . . . . . .                   . . . . .                   . . . . . . . . .             . . . . . . . .   ",
"  . . . . . . . . .               . . . . . . .                     . . .                       . . . . . . .             . . . . . . . . .   ",
"  . . . . . . . . .                 . . . . .                       . . . .                       . . . .                 . . . . . . . . . . ",
". . . . . . . . . .                   . . . .                     . . . . .                     . . . .                   . . . . . . . . . . ",
"  . . . . . . . . .                   . . . .                     . . . . .                     . . . .                   . . . . . . . . . . ",
"  . . . . . . . . .                   . . . . .                   . . . . .                     . . . .                   . . . . . . . . .   ",
"  . . . . . . . .                     . . . . .                   . . . . .                   . . . . .                     . . . . . . . .   ",
"    . . . . . . .                     . . . . .                   . . . . . .                 . . . . .                     . . . . . . .     ",
"          . . . .                     . . . . . .               . . . . . . .               . . . . . .                     . . . .           ",
"            . . . .                   . . . . . .               . . . . . . .               . . . . . .                   . . . . .           ",
"            . . . . .                 . . . . . .               . . . . . . .               . . . . . .                   . . . .             ",
"            . . . . .                 . . . . . . .             . . . . . . .             . . . . . . .                 . . . . .             ",
"            . . . . . .               . . . . . . .             . . . . . . . .           . . . . . . .               . . . . . .             ",
"            . . . . . . .             . . . . . . . .         . . . . . . . . .           . . . . . . .               . . . . . .             ",
"              . . . . . .             . . . . . . . .         . . . . . . . . .         . . . . . . . .             . . . . . . .             ",
"              . . . . . . .           . . . . . . . .         . . . . . . . . .         . . . . . . . .           . . . . . . .               ",
"              . . . . . . . .         . . . . . . . . .       . . . . . . . . . .     . . . . . . . . .           . . . . . . .               ",
"              . . . . . . . .         . . . . . . . . .       . . . . . . . . . .     . . . . . . . . .         . . . . . . . .               ",
"              . . . . . . . . .       . . . . . . . . . .   . . . . . . . . . . .     . . . . . . . . .       . . . . . . . . .               ",
"                . . . . . . . . .     . . . . . . . . . .   . . . . . . . . . . .   . . . . . . . . . .       . . . . . . . . .               ",
"                . . . . . . . . .     . . . . . . . . . .   . . . . . . . . . . .   . . . . . . . . . .     . . . . . . . . . .               ",
"                . . . . . . . . . .   . . . . . . . . . . . . . . . . . . . . . . . . . . . . . . . . .   . . . . . . . . . .                 ",
"                . . . . . . . . . . . . . . . . . . . . . . . . . . . . . . . . . . . . . . . . . . . . . . . . . . . . . . .                 ",
"                . . . . . . . . . . . . . . . . . . . . . . . . . . . . . . . . . . . . . . . . . . . . . . . . . . . . . . .                 ",
"                  . . . . . . . . . . . . . . . . . . . . . . . . . . . . . . . . . . . . . . . . . . . . . . . . . . . . . .                 ",
"                  . . . . . . . . . . . . . . . . . . . . . . . . . . . . . . . . . . . . . . . . . . . . . . . . . . . . .                   ",
"                  . . . . . . . . . . . . . . . . . . . . . . . . . . . . . . . . . . . . . . . . . . . . . . . . . . . . .                   ",
"                  . . . . . . . . . . . . . . . . . . . . . . . . . . . . . . . . . . . . . . . . . . . . . . . . . . . . .                   ",
"                  . . . . . . . . . . . . . . . . . . . . . . . . . . . . . . . . . . . . . . . . . . . . . . . . . . . . .                   ",
"                  . . . . . . . . . . . . . . . . . . . . . . . + @ # $ % & * . . . . . . . . . . . . . . . . . . . . . . .                   ",
"                    . . . . . . . . . . . . . = - ; > , ' ) ! ~ { { { { { { { { ] ^ / ( _ : < [ } . . . . . . . . . . . . .                   ",
"                    . . . . . . . . % | 1 2 ~ { { { { { { { { { { { { { { { { { { { { { { { { { { 3 4 5 6 7 . . . . . . .                     ",
"                    . . . . . } 8 9 0 { { { { { { { { { { ] 3 a b ; c d e f : g h i { { { { { { { { { { j k l $ . . . . .                     ",
"                      . . m n ] { { { { { ~ o ( p q r s 7 . . . . . . . . . . . . . t u v w x y z A { { { { { { / B . .                       ",
"                        . C { { { { { ) D E . . . . . . . . . . . . . . . . . . . . . . . . . . . . F ' { { { { { { .                         ",
"                          G { 0 e H # . . . . . . . . . . . . . . . . . . . . . . . . . . . . . . . . . I J K k { L                           ",
"                            . . . . . . . . . . . . . . . . . . . . . . . . . . . . . . . . . . . . . . . . . . .                             ",
"                            . . . . . . . . . . . . . . . . . . . . . . . . . . . . . . . . . . . . . . . . . . .                             ",
"                              . M { { { { { { { { { { { { { { { { { { { { { { { { { { { { { { { { { { { { { 3 N                               ",
"                                O { { { { { { { { { { { { { { { { { { { { { { { { { { { { { { { { { { { { { { P                               ",
"                              . Q R S S S S S S S S S S S S S S S S S S S S S S S S S S S S S S S S S S S R d T                               ",
"                              . . . . . . . . . . . . . . . . . . . . . . . . . . . . . . . . . . . . . . . . .                               ",
"                              . . . . . . . . . . . . . . . . . . . . . . . . . . . . . . . . . . . . . . . . .                               ",
"                            U V W X . . . . . . . . . . . . . . . . . . . . . . . . . . . . . . . . . . . E Y Z `                             ",
"                          . { { { {  ...+.@ + . . . . . . . . . . . . . . . . . . . . . . . . . . T @.#.$.{ { { { [                           ",
"                          . %.{ { { { { ] &.*.=.W -.. . . . . . . . . . . . . . . . . . . & Y ;.R L >.{ { { { { { u                           ",
"                        . . . 1 =.,.~ { { { { { { { '.).G !.w ~.~.~.~.~.~.~.~.~.` {.].^.! { { { { { { { { /.(._.t .                           ",
"                        . . . . . . * :.^ { { { { { { { { { { { { { { { { { { { { { { { { { { { { { <.[.@.. . . . .                           ",
"                      . . }.. . . . . . . I #.|.1.p k 2.{ { { { { { { { { { { { { { { { o (.3.4.v 5.. . . . . . . T .                         ",
"                      . 8 { { :.6.T . . . . . . . . . . * $ 7.K c 8.b 9.;.0.a.b.r c.& . . . . . . . . . . 7 d.e.f.{ g.                        ",
"                      h.C { { { ! ,.i.F h.. . . . . . . . . . . . . . . . . . . . . . . . . . . . . . j.p k k.{ { { l.                        ",
"                        m.n.{ { { { { { { o.V 1.p.5.7 . . . . . . . . . . . . . . . . . . @ q.1 w y i { { { { { { r.s.                        ",
"                          . . 4 ^ 2.{ { { { { { { { { ).t.K Y N @ @ @ @ @ @ @ @.u.v.9.w.'.{ { { { { { { { ] k.=.+ .                           ",
"                            . . t = x.f y.{ { { { { { { { { { { { { { { { { { { { { { { { { { { { { >.z.A.B.}.. .                             ",
"                                  . . . . C.D D.E.%.).A { { { { { { { { { { { { { { { '.j F.o.G.H.I.. . . .                                   ",
"                                          . . . . J.K.+.I.q.L.8 M.N.$.O.M G P.Q.x.J N 6 5.I + . . .                                           ",
"                                                                                                                                              ",
"                                                                                                                                              ",
"                                                                                                                                              "};
