/* XPM */
static char * C:\Users\debor\Documents\GitHub\LCOM_WizardsChess\Assets _ Pieces\BlackKing_xpm[] = {
"71 71 65 1",
" 	c None",
".	c #000100",
"+	c #020501",
"@	c #060905",
"#	c #090C08",
"$	c #0C0F0B",
"%	c #0F110E",
"&	c #121412",
"*	c #161816",
"=	c #1A1C1A",
"-	c #1D1F1D",
";	c #222321",
">	c #252724",
",	c #292B28",
"'	c #2C2D2B",
")	c #30322F",
"!	c #333532",
"~	c #373936",
"{	c #3B3D3B",
"]	c #3F413E",
"^	c #454644",
"/	c #494B48",
"(	c #4F514E",
"_	c #545653",
":	c #585A57",
"<	c #5C5E5C",
"[	c #626461",
"}	c #666865",
"|	c #6C6E6B",
"1	c #70726F",
"2	c #747673",
"3	c #787A77",
"4	c #7D7F7C",
"5	c #828481",
"6	c #858885",
"7	c #8A8C89",
"8	c #8D8F8C",
"9	c #919390",
"0	c #949693",
"a	c #999B98",
"b	c #9D9F9C",
"c	c #A2A4A1",
"d	c #A6A9A5",
"e	c #AAACA9",
"f	c #ADAFAC",
"g	c #B0B3AF",
"h	c #B6B8B5",
"i	c #B9BCB8",
"j	c #BEC1BE",
"k	c #C2C4C1",
"l	c #C7CAC6",
"m	c #CBCECA",
"n	c #D0D2CF",
"o	c #D3D5D2",
"p	c #D6D8D5",
"q	c #DADDD9",
"r	c #DFE1DE",
"s	c #E3E5E2",
"t	c #E6E9E5",
"u	c #EAECE9",
"v	c #EFF1EE",
"w	c #F4F7F3",
"x	c #F9FBF8",
"y	c #FCFEFB",
"z	c #FDFFFC",
"                                                                       ",
"                                  +++                                  ",
"                                  +++                                  ",
"                                  +++                                  ",
"                                  ++++                                 ",
"                             +++++++++++++                             ",
"                             +++++++++++++                             ",
"                              ++++++++++++                             ",
"                                  +++                                  ",
"                                  +++                                  ",
"                                  +++                                  ",
"                                  +++                                  ",
"                                  +++                                  ",
"                                 ++++++                                ",
"                               +++++++++                               ",
"                              +++++++++++                              ",
"                              ++++++++++++                             ",
"                             +++++++++++++                             ",
"                            +++++++++++++++                            ",
"                            +++++++++++++++                            ",
"                            ++++++++++++++++                           ",
"          ++++++++++        ++++++++++++++++      ++++++++++           ",
"        +++%=---=%@++++     ++++++++++++++++   +++++#*=---*#+++        ",
"      ++#|blvyyxvne8/++++   ++++++++++++++++ ++++@<9hrwyyxti0:++       ",
"     ++{vyyyyyyyyyyyyy2%+++ +++++++++++++++++++*0yyyyyyyyyyyyyr>++     ",
"    +#0yyyyywsqswyyyyyyu6=+++++++++++++++++++>8vyyyyyyvrqtxyyyyya#+    ",
"    +lyyyyg*+++++@}vyyyyyy3+++++++++++++++++2yyyyyym^++++++~oyyyyx++   ",
"   @0yyyf,++++++++++;2myyyyi{+++++++++++++'fyyyyi1&++++++++++{fxyyo&   ",
"  +'xyyk++++++++++++++@<yyyyv(+++++++++++{uyyyy_@++++++++++++++0yyyf+  ",
"  +kyyk+++++++++++++++++*9yyyy1@++++++++:vyyy0*+++++++++++++++++7xyy_  ",
"  'yyw/+++++++++++++++++++]uyyx4+++++++:wyyx^+++++++++++++++++++@ryye+ ",
" +ayyq@++++++++++++++++++++!lyyy4+++++]vyys_+++++++++++++++++++++)yyp- ",
" +iyy9++++++++++++++++++++++&hyyy[+++)uyyr,+++++++++++++++++++++++wyw~ ",
" %nyy~+++++++++++++++++++++++%lyyw)++fyyw(++++++++++++++++++++++++lyy{ ",
" *pyy=++++++++++++++++++++++++=oyyu&8yyy^+++++++++++++++++++++++++kyy] ",
" &oyy>+++++++++++++++++++++++++(yyyhyyy7++++++++++++++++++++++++++ryx{ ",
" +kyy|++++++++++++++++++++++++++|yyyyyy&+++++++++++++++++++++++++@yyt' ",
" +gyyn++++++++++++++++++++++++++@lyyyx^++++++++++++++++++++++++++7yyk# ",
" +_yyv)++++++++++++++++++++++++++}yyyj@+++++++++++++++++++++++++=tyy8+ ",
"  +uyy5+++++++++++++++++++++++++++yyy5++++++++++++++++++++++++++2yyw%  ",
"  +(yyx(++++++++++++++++++++++++++xyy|+++++++++++++++++++++++++^wyy}+  ",
"   $kyyu)+++++++++++++++++++++++++xyy|++++++++++++++++++++++++'tyyn&   ",
"   +)yyyo>++++++++++++++++++++++++xyy1+++++++++++++++++++++++;oyyy~+   ",
"    +'xyyw~+++++++++++++++++++++++wyy1++++++++++++++++++++++!wyyx!+    ",
"     +[yyyt6++++++++++++++;{}47889wyyh853(!&+++++++++++++++1syyy[+     ",
"      +]wyyyk%++++++@%~0qyyyyyyyyyyyyyyyyyyyyi[*#++++++++#cyyyx]+      ",
"       +^qyyyy8$+@_5jxyyyyyyyyyyyyyyyyyyyyyyyyyyrb1'++++:oyyyu/+       ",
"        ++hyyyyybxyyyyyyyyyyxtnb21|136krwyyyyyyyyyyyr]*syyyyl@+        ",
"         ++}myyyyyyyywk06<>#++++++++++++++&]18eryyyyyyyyyyu8#+         ",
"           +4yyyyyyk]$@++++++++++++++++++++++++#*4vyyyyyyp=+           ",
"            uyyyh2=++++++++++++++++++++++++++++++++^9syyy>+            ",
"            9yn>#+++++++++++~_}0fhjigd3</*+++++++++++*6yk              ",
"            +@++++++@)_|boyyyyyyyyyyyyyyyyyvk5[/*++++++++              ",
"            ++++++'grvxyyyyyyyyyyyyyyyyyyyyyyyywto|++++++              ",
"            +++!|ryyyyyyyyuqkhgfedcdeefhinswyyyyyyywc/%++              ",
"            +;ivyyyyyyva_'>=#+++++++++++@&-,)3myyyyyyxq5+              ",
"            byyyyytk5=+++++++++++++++++++++++++@(enxyyyyk              ",
"            xyyyo/>+++++++++++++++++++++++++++++++%{9yyyy              ",
"            9rl/+++++++++%>)]]]}245531(]]~,=@++++++++#aqk              ",
"            +,%++++++%_afkquyyyyyyyyyyyyywsnhe3'+++++++;%              ",
"            +++++%,|qyyyyyyyyyyyyyyyyyyyyyyyyyyyye]-+++++              ",
"            +++-6kwyyyyyyyyypkf6332234ailuyyyyyyyyyre_+++              ",
"            +-cyyyyyyvso9/+++++++++++++++++*[jruxyyyyyt^#              ",
"            0yyyyywd<{$++++++++++++++++++++++++;_2qyyyyyk              ",
"            yyyxv4+++++++++++++++++++++++++++++++++,lwyyy              ",
"             yj[%++++++++++++++++++++++++++++++++++++)8wy              ",
"              +++++++++++++++++++++++++++++++++++++++++                ",
"                +++++++++++++++++++++++++++++++++++++                  ",
"                  +++++++++++++++++++++++++++++++++                    ",
"                     +++++++++++++++++++++++++++                       ",
"                          ++++++++++++++++++                           "};
