/* XPM */
static char * C:\Users\debor\Documents\[LCOM]\WizardChess_Assets\Copy of Chess _ Pieces PNG\BlackKing_xpm[] = {
"71 71 229 2",
"  	c None",
". 	c #000000",
"+ 	c #040404",
"@ 	c #101010",
"# 	c #1C1C1C",
"$ 	c #1F1F1F",
"% 	c #121212",
"& 	c #070707",
"* 	c #010101",
"= 	c #0A0A0A",
"- 	c #161616",
"; 	c #1D1D1D",
"> 	c #1E1E1E",
", 	c #191919",
"' 	c #0D0D0D",
") 	c #6C6C6C",
"! 	c #A0A0A0",
"~ 	c #CACACA",
"{ 	c #F2F2F2",
"] 	c #FDFDFD",
"^ 	c #FFFFFF",
"/ 	c #FCFCFC",
"( 	c #F1F1F1",
"_ 	c #D2D2D2",
": 	c #AAAAAA",
"< 	c #909090",
"[ 	c #4C4C4C",
"} 	c #060606",
"| 	c #090909",
"1 	c #5F5F5F",
"2 	c #949494",
"3 	c #B6B6B6",
"4 	c #DFDFDF",
"5 	c #F7F7F7",
"6 	c #FBFBFB",
"7 	c #E9E9E9",
"8 	c #BEBEBE",
"9 	c #969696",
"0 	c #595959",
"a 	c #030303",
"b 	c #3B3B3B",
"c 	c #EFEFEF",
"d 	c #757575",
"e 	c #020202",
"f 	c #171717",
"g 	c #989898",
"h 	c #E1E1E1",
"i 	c #272727",
"j 	c #0B0B0B",
"k 	c #E3E3E3",
"l 	c #DBDBDB",
"m 	c #E4E4E4",
"n 	c #F6F6F6",
"o 	c #EBEBEB",
"p 	c #868686",
"q 	c #8F8F8F",
"r 	c #F3F3F3",
"s 	c #FEFEFE",
"t 	c #DCDCDC",
"u 	c #9B9B9B",
"v 	c #0C0C0C",
"w 	c #CBCBCB",
"x 	c #B3B3B3",
"y 	c #181818",
"z 	c #676767",
"A 	c #F0F0F0",
"B 	c #787878",
"C 	c #CDCDCD",
"D 	c #454545",
"E 	c #373737",
"F 	c #D3D3D3",
"G 	c #F9F9F9",
"H 	c #979797",
"I 	c #B1B1B1",
"J 	c #2B2B2B",
"K 	c #242424",
"L 	c #767676",
"M 	c #BABABA",
"N 	c #3D3D3D",
"O 	c #2E2E2E",
"P 	c #B0B0B0",
"Q 	c #737373",
"R 	c #151515",
"S 	c #3C3C3C",
"T 	c #AEAEAE",
"U 	c #2D2D2D",
"V 	c #C1C1C1",
"W 	c #505050",
"X 	c #565656",
"Y 	c #050505",
"Z 	c #959595",
"` 	c #C5C5C5",
" .	c #C3C3C3",
"..	c #939393",
"+.	c #727272",
"@.	c #5A5A5A",
"#.	c #898989",
"$.	c #494949",
"%.	c #3F3F3F",
"&.	c #EDEDED",
"*.	c #7D7D7D",
"=.	c #5B5B5B",
"-.	c #FAFAFA",
";.	c #464646",
">.	c #080808",
",.	c #E2E2E2",
"'.	c #ADADAD",
").	c #9C9C9C",
"!.	c #343434",
"~.	c #C7C7C7",
"{.	c #808080",
"].	c #424242",
"^.	c #545454",
"/.	c #323232",
"(.	c #D8D8D8",
"_.	c #141414",
":.	c #B8B8B8",
"<.	c #636363",
"[.	c #303030",
"}.	c #EEEEEE",
"|.	c #292929",
"1.	c #F4F4F4",
"2.	c #383838",
"3.	c #D0D0D0",
"4.	c #393939",
"5.	c #AFAFAF",
"6.	c #F5F5F5",
"7.	c #C8C8C8",
"8.	c #3E3E3E",
"9.	c #D7D7D7",
"0.	c #D4D4D4",
"a.	c #ECECEC",
"b.	c #444444",
"c.	c #262626",
"d.	c #4E4E4E",
"e.	c #8B8B8B",
"f.	c #E0E0E0",
"g.	c #C4C4C4",
"h.	c #6F6F6F",
"i.	c #E8E8E8",
"j.	c #2C2C2C",
"k.	c #B2B2B2",
"l.	c #555555",
"m.	c #6B6B6B",
"n.	c #C0C0C0",
"o.	c #8D8D8D",
"p.	c #858585",
"q.	c #848484",
"r.	c #777777",
"s.	c #111111",
"t.	c #515151",
"u.	c #535353",
"v.	c #6E6E6E",
"w.	c #686868",
"x.	c #0E0E0E",
"y.	c #333333",
"z.	c #707070",
"A.	c #EAEAEA",
"B.	c #717171",
"C.	c #222222",
"D.	c #D5D5D5",
"E.	c #2F2F2F",
"F.	c #353535",
"G.	c #E7E7E7",
"H.	c #888888",
"I.	c #232323",
"J.	c #696969",
"K.	c #7F7F7F",
"L.	c #8A8A8A",
"M.	c #929292",
"N.	c #B9B9B9",
"O.	c #797979",
"P.	c #131313",
"Q.	c #E5E5E5",
"R.	c #626262",
"S.	c #414141",
"T.	c #F8F8F8",
"U.	c #0F0F0F",
"V.	c #BBBBBB",
"W.	c #656565",
"X.	c #A1A1A1",
"Y.	c #4B4B4B",
"Z.	c #B7B7B7",
"`.	c #9F9F9F",
" +	c #D1D1D1",
".+	c #C2C2C2",
"++	c #CECECE",
"@+	c #878787",
"#+	c #5E5E5E",
"$+	c #ABABAB",
"%+	c #404040",
"&+	c #B5B5B5",
"*+	c #1A1A1A",
"=+	c #474747",
"-+	c #BFBFBF",
";+	c #A7A7A7",
">+	c #5C5C5C",
",+	c #585858",
"'+	c #9D9D9D",
")+	c #818181",
"!+	c #484848",
"~+	c #6D6D6D",
"{+	c #DDDDDD",
"]+	c #A8A8A8",
"^+	c #A4A4A4",
"/+	c #A6A6A6",
"(+	c #A5A5A5",
"_+	c #BDBDBD",
":+	c #252525",
"<+	c #1B1B1B",
"[+	c #202020",
"}+	c #2A2A2A",
"|+	c #313131",
"1+	c #7A7A7A",
"2+	c #CCCCCC",
"3+	c #DADADA",
"4+	c #E6E6E6",
"5+	c #C6C6C6",
"6+	c #D6D6D6",
"7+	c #7E7E7E",
"8+	c #7B7B7B",
"9+	c #999999",
"0+	c #DEDEDE",
"a+	c #A9A9A9",
"b+	c #D9D9D9",
"c+	c #747474",
"d+	c #7C7C7C",
"e+	c #A2A2A2",
"f+	c #8E8E8E",
"                                                                                                                                              ",
"                                                                    . . .                                                                     ",
"                                                                    . . .                                                                     ",
"                                                                    . . .                                                                     ",
"                                                                    . . . .                                                                   ",
"                                                          . . . . . . . . . . . . .                                                           ",
"                                                          . . . . . . . . . . . . .                                                           ",
"                                                            . . . . . . . . . . . .                                                           ",
"                                                                    . . .                                                                     ",
"                                                                    . . .                                                                     ",
"                                                                    . . .                                                                     ",
"                                                                    . . .                                                                     ",
"                                                                    . . .                                                                     ",
"                                                                  . . . . . .                                                                 ",
"                                                              . . . . . . . . .                                                               ",
"                                                            . . . . . . . . . . .                                                             ",
"                                                            . . . . . . . . . . . .                                                           ",
"                                                          . . . . . . . . . . . . .                                                           ",
"                                                        . . . . . . . . . . . . . . .                                                         ",
"                                                        . . . . . . . . . . . . . . .                                                         ",
"                                                        . . . . . . . . . . . . . . . .                                                       ",
"                    . . . . . . . . . .                 . . . . . . . . . . . . . . . .             . . . . . . . . . . .                     ",
"                . . + @ # $ $ $ # % & . . . .           . . . . . . . . . . . . . . . .       . . . . * = - ; $ $ > , ' * . .                 ",
"            . . ' ) ! ~ { ] ^ / ( _ : < [ } . . .       . . . . . . . . . . . . . . . .   . . . . | 1 2 3 4 5 ^ ^ 6 7 8 9 0 a .               ",
"          . + b c ^ ^ ^ ^ ^ ^ ^ ^ ^ ^ ^ ^ ^ d @ * . .   . . . . . . . . . . . . . . . . . . e f g ^ ^ ^ ^ ^ ^ ^ ^ ^ ^ ^ ^ ^ h i + .           ",
"        . j g ^ ^ ^ ^ ^ 5 k l m n ^ ^ ^ ^ ^ ^ o p ; . . . . . . . . . . . . . . . . . . . i q r ^ ^ ^ ^ ^ s c 4 t 7 6 ^ ^ ^ ^ ^ u v .         ",
"        . w ^ ^ ^ s x y . . . . . & z A ^ ^ ^ ^ ^ ^ B . . . . . . . . . . . . . . . . . d ^ ^ ^ ^ ^ ^ C D . . . . . . E F ^ ^ ^ ^ G . .       ",
"      & H ^ ^ ] I J . . . . . . . . . . K L C ^ ^ ^ ^ M N . . . . . . . . . . . . . O P s ^ ^ s 8 Q R . . . . . . . . . . S T / ^ ^ F R       ",
"    . U / ^ ^ V } . . . . . . . . . . . . . | 1 ^ ^ ^ ^ { W . . . . . . . . . . . N o ^ ^ ^ ^ X & . . . . . . . . . . . . . Y Z ^ ^ s T .     ",
"    . ` ^ ^  .. . . . . . . . . . . . . . . . . f ..^ ^ ^ ^ +.| . . . . . . . . @.c ^ ^ ^ 9 y . . . . . . . . . . . . . . . . . #.6 ^ ^ X     ",
"    O ^ ^ n $.. . . . . . . . . . . . . . . . . . + %.&.^ ^ 6 *.. . . . . . . =.5 ^ ^ -.;.Y . . . . . . . . . . . . . . . . . . >.,.^ ^ '.*   ",
"  . ).^ ^ t & . . . . . . . . . . . . . . . . . . . . !.~.^ ^ ^ {.} . . . . ].{ ^ ^ m ^.. . . . . . . . . . . . . . . . . . . . . /.^ ^ (.$   ",
"  . 8 ^ ^ 2 . . . . . . . . . . . . . . . . . . . . . . _.:.^ ^ ] <.. . . [.}.^ ^ ,.|.. . . . . . . . . . . . . . . . . . . . . . . 1.^ 5 2.  ",
"  @ 3.^ ^ 4.. . . . . . . . . . . . . . . . . . . . . . . @ ~ ^ ^ 5 [.. . 5.^ ^ 6.W . . . . . . . . . . . . . . . . . . . . . . . . 7.^ ^ 8.  ",
"  - 9.^ ^ ; . . . . . . . . . . . . . . . . . . . . . . . . # 0.^ ^ a.R q ^ ^ ^ b.. . . . . . . . . . . . . . . . . . . . . . . . .  .^ ^ %.  ",
"  _.0.^ ^ c.. . . . . . . . . . . . . . . . . . . . . . . . . d.^ ^ ^ :.^ ^ ^ e.+ . . . . . . . . . . . . . . . . . . . . . . . . . f.^ 6 S   ",
"  + g.^ ^ h.. . . . . . . . . . . . . . . . . . . . . . . . . . h.^ ^ ^ ^ ^ ^ R . . . . . . . . . . . . . . . . . . . . . . . . . | ^ ^ i.j.  ",
"  . k.^ ^ 3.e . . . . . . . . . . . . . . . . . . . . . . . . . >.w ^ ^ ^ 6 b.. . . . . . . . . . . . . . . . . . . . . . . . . . e.^ ^ V '   ",
"  . l.^ ^ c [.. . . . . . . . . . . . . . . . . . . . . . . . . . m.^ ^ ^ n.& . . . . . . . . . . . . . . . . . . . . . . . . . # i.^ ^ o..   ",
"    . &.^ ^ p.. . . . . . . . . . . . . . . . . . . . . . . . . . + s ^ ^ q.. . . . . . . . . . . . . . . . . . . . . . . . . . r.^ ^ 5 s.    ",
"    . t.^ ^ G u.. . . . . . . . . . . . . . . . . . . . . . . . . . 6 ^ ^ v.. . . . . . . . . . . . . . . . . . . . . . . . . ;.1.^ ^ w..     ",
"      x.` ^ ^ a.y.. . . . . . . . . . . . . . . . . . . . . . . . . 6 ^ ^ z.. . . . . . . . . . . . . . . . . . . . . . . . U A.^ ^ _ R       ",
"      . y.^ ^ ^ 0.c.. . . . . . . . . . . . . . . . . . . . . . . . -.^ ^ B.. . . . . . . . . . . . . . . . . . . . . . . C.D.^ ^ ^ 4..       ",
"        . E.-.^ ^ n 2.. . . . . . . . . . . . . . . . . . . . . . . 5 ^ ^ B.. . . . . . . . . . . . . . . . . . . . . . !.6.^ ^ -.F..         ",
"          e <.^ ^ ^ G.H.+ . . . . . . . . . . . . . I.S J.K.L.q < M.n ^ ^ N.q q.O.t.!.P.. . . . . . . . . . . . . . . +.Q.^ ^ ^ R.e           ",
"            . S.T.^ ^ ^ g.U.e . . . . . >.U.E H l ^ ^ ^ ^ ^ ^ ^ ^ ^ ^ ^ ^ ^ ^ ^ ^ ^ ^ ^ ^ V.W., v + . . . . . . . ' X.^ ^ ^ G S..             ",
"              . ;.t ^ ^ ^ ^ q x.. | X q.n.G ^ ^ ^ ^ ^ ^ ^ ^ ^ ^ ^ ^ ^ ^ ^ ^ ^ ^ ^ ^ ^ ^ ^ ^ ^ s h ! Q U . . . e 0 F ^ ^ ^ a.Y.*               ",
"                . Y Z.^ ^ ^ ^ ] `./ ^ ^ ^ ^ ^ ^ ^ ^ ^ ^ / A. +`.r.Q v.B.B p .+4 n ^ ^ ^ ^ ^ ^ ^ ^ ^ ^ ^ h S.f Q.^ ^ ^ ^ ~.>..                 ",
"                  . . J.++^ ^ ^ ^ ^ ^ ^ ^ 6. .9 @+#+i ' . . . . . . . . . . . . . Y _.%.B.< $+4 ] ^ ^ ^ ^ ^ ^ ^ ^ ^ o q ' .                   ",
"                      . {.^ ^ ^ ^ ^ ^  .%+x.& * . . . . . . . . . . . . . . . . . . . . . . + j - {.A ^ ^ ^ ^ ^ ^ (.# .                       ",
"                        &.^ ^ ^ &+L *+. . . . . . . . . . . . . . . . . . . . . . . . . . . . . . . . =+2 m ^ ^ ^ i .                         ",
"                        ..^ _ i = . . . . . . . . . . . E X z H 5.Z.-+V.x ;+B >+[ f . . . . . . . . . . e , p ^ .+                            ",
"                        . >.. . . . . . & /.,+v.'+D.^ ^ ^ ^ ^ ^ ^ ^ ^ ^ ^ ^ ^ ^ ^ ^ ^ c .+)+<.!+, . . . . . . . .                             ",
"                        . . . . . . U x h A / ^ ^ ^ ^ ^ ^ ^ ^ ^ ^ ^ ^ ^ ^ ^ ^ ^ ^ ^ ^ ^ ^ ^ ^ 5 G.D.~+. . . . . .                             ",
"                        . . + F.h.,.^ ^ ^ ^ ^ ^ ^ ^ &.{+ .:.k.5.$+]+^+/+$+'.5.3 V._ m n ^ ^ ^ ^ ^ ^ ^ T.(+Y.% . .                             ",
"                        . I._+c ^ ^ ^ ^ ^ ^ A ).l.E.:+<+v Y e . . . . . . . . + & R [+}+|+1+2+^ ^ ^ ^ ^ ^ / 3+p.e                             ",
"                        '+^ ^ ^ ^ ^ 4+V )+<+. . . . . . . . . . . . . . . . . . . . . . . . . & t.'._ G ^ ^ ^ ^ 5+                            ",
"                        / ^ ^ ^ 6+[ i e . . . . . . . . . . . . . . . . . . . . . . . . . . . . . . % N ..^ ^ ^ ^                             ",
"                        2 ,.w Y.. . . . . . . . * U.:+|+%.%.].z L 7+q.)+8++.d.%.%.4.}+<+& . . . . . . . . v ).l g.                            ",
"                        . J U.. . . . . . U.X 9+I  .0+a.^ ^ ^ ^ ^ ^ ^ ^ ^ ^ ^ ^ ^ n m _ N.a+B O * . . . . . . I.U.                            ",
"                        . . . . . s.J h.3+^ ^ ^ ^ ^ ^ ^ ^ ^ ^ ^ ^ ^ ^ ^ ^ ^ ^ ^ ^ ^ ^ ^ ^ ^ ^ ^ ] a+%+[+Y . . . .                             ",
"                        . . . > H..+n ^ ^ ^ ^ ^ ^ ^ ^ s b+ .5.p 8+B c+r.1+d+).V.w }.^ ^ ^ ^ ^ ^ ^ ^ ^ f.: ,++ . .                             ",
"                        + $ e+] ^ ^ ^ ^ ] r k D.2 $.. . . . . . . . . . . . . . . . . y W.-+4 o 6 ^ ^ ^ ^ ^ 4+D v                             ",
"                        H s ^ ^ ^ ^ 1./+>+S x.. . . . . . . . . . . . . . . . . . . . . . . e K l.r.t ^ ^ ^ ^ s 5+                            ",
"                        s ^ ^ / A d+. . . . . . . . . . . . . . . . . . . . . . . . . . . . . . . . . }+~ 5 ^ ^ ^                             ",
"                          ^ n.<.U.. . . . . . . . . . . . . . . . . . . . . . . . . . . . . . . . . . . . /.f+6.^                             ",
"                            . . . . . . . . . . . . . . . . . . . . . . . . . . . . . . . . . . . . . . . . .                                 ",
"                                . . . . . . . . . . . . . . . . . . . . . . . . . . . . . . . . . . . . .                                     ",
"                                    . . . . . . . . . . . . . . . . . . . . . . . . . . . . . . . . .                                         ",
"                                          . . . . . . . . . . . . . . . . . . . . . . . . . . .                                               ",
"                                                    . . . . . . . . . . . . . . . . . .                                                       "};
