/* XPM */
static char * C:\Users\debor\Documents\[LCOM]\WizardChess_Assets\Copy of Chess _ Pieces PNG\WhiteKing_xpm[] = {
"71 71 187 2",
"  	c None",
". 	c #000000",
"+ 	c #5B5B5B",
"@ 	c #F0F0F0",
"# 	c #B0B0B0",
"$ 	c #1B1B1B",
"% 	c #D3D3D3",
"& 	c #FFFFFF",
"* 	c #F6F6F6",
"= 	c #686868",
"- 	c #E8E8E8",
"; 	c #FBFBFB",
"> 	c #5A5A5A",
", 	c #9B9B9B",
"' 	c #B5B5B5",
") 	c #333333",
"! 	c #232323",
"~ 	c #4F4F4F",
"{ 	c #565656",
"] 	c #585858",
"^ 	c #676767",
"/ 	c #AFAFAF",
"( 	c #A0A0A0",
"_ 	c #3C3C3C",
": 	c #A3A3A3",
"< 	c #767676",
"[ 	c #030303",
"} 	c #141414",
"| 	c #7F7F7F",
"1 	c #FEFEFE",
"2 	c #FAFAFA",
"3 	c #656565",
"4 	c #1E1E1E",
"5 	c #020202",
"6 	c #CECECE",
"7 	c #060606",
"8 	c #1D1D1D",
"9 	c #939393",
"0 	c #B3B3B3",
"a 	c #222222",
"b 	c #DDDDDD",
"c 	c #A8A8A8",
"d 	c #131313",
"e 	c #373737",
"f 	c #EBEBEB",
"g 	c #272727",
"h 	c #4C4C4C",
"i 	c #B4B4B4",
"j 	c #F7F7F7",
"k 	c #8D8D8D",
"l 	c #121212",
"m 	c #0F0F0F",
"n 	c #878787",
"o 	c #BFBFBF",
"p 	c #FDFDFD",
"q 	c #080808",
"r 	c #696969",
"s 	c #0B0B0B",
"t 	c #BCBCBC",
"u 	c #AEAEAE",
"v 	c #353535",
"w 	c #E4E4E4",
"x 	c #8F8F8F",
"y 	c #1F1F1F",
"z 	c #040404",
"A 	c #EFEFEF",
"B 	c #D1D1D1",
"C 	c #9F9F9F",
"D 	c #DCDCDC",
"E 	c #727272",
"F 	c #DFDFDF",
"G 	c #F9F9F9",
"H 	c #2C2C2C",
"I 	c #747474",
"J 	c #DBDBDB",
"K 	c #0C0C0C",
"L 	c #ECECEC",
"M 	c #B6B6B6",
"N 	c #E3E3E3",
"O 	c #6D6D6D",
"P 	c #F5F5F5",
"Q 	c #444444",
"R 	c #101010",
"S 	c #CDCDCD",
"T 	c #2D2D2D",
"U 	c #777777",
"V 	c #D2D2D2",
"W 	c #7C7C7C",
"X 	c #9C9C9C",
"Y 	c #E9E9E9",
"Z 	c #343434",
"` 	c #646464",
" .	c #0A0A0A",
"..	c #E5E5E5",
"+.	c #252525",
"@.	c #959595",
"#.	c #0E0E0E",
"$.	c #F3F3F3",
"%.	c #BBBBBB",
"&.	c #919191",
"*.	c #B7B7B7",
"=.	c #8A8A8A",
"-.	c #C2C2C2",
";.	c #B8B8B8",
">.	c #E7E7E7",
",.	c #ACACAC",
"'.	c #808080",
").	c #7B7B7B",
"!.	c #010101",
"~.	c #969696",
"{.	c #FCFCFC",
"].	c #909090",
"^.	c #707070",
"/.	c #050505",
"(.	c #464646",
"_.	c #EAEAEA",
":.	c #D0D0D0",
"<.	c #666666",
"[.	c #8C8C8C",
"}.	c #383838",
"|.	c #191919",
"1.	c #CCCCCC",
"2.	c #474747",
"3.	c #ABABAB",
"4.	c #D9D9D9",
"5.	c #6A6A6A",
"6.	c #070707",
"7.	c #8E8E8E",
"8.	c #111111",
"9.	c #5F5F5F",
"0.	c #F2F2F2",
"a.	c #5E5E5E",
"b.	c #2E2E2E",
"c.	c #626262",
"d.	c #CFCFCF",
"e.	c #E6E6E6",
"f.	c #868686",
"g.	c #2A2A2A",
"h.	c #393939",
"i.	c #3F3F3F",
"j.	c #717171",
"k.	c #C9C9C9",
"l.	c #F8F8F8",
"m.	c #595959",
"n.	c #757575",
"o.	c #1A1A1A",
"p.	c #C3C3C3",
"q.	c #E2E2E2",
"r.	c #6F6F6F",
"s.	c #7A7A7A",
"t.	c #2F2F2F",
"u.	c #DEDEDE",
"v.	c #454545",
"w.	c #D8D8D8",
"x.	c #DADADA",
"y.	c #CBCBCB",
"z.	c #A5A5A5",
"A.	c #535353",
"B.	c #242424",
"C.	c #616161",
"D.	c #C0C0C0",
"E.	c #505050",
"F.	c #0D0D0D",
"G.	c #898989",
"H.	c #EEEEEE",
"I.	c #989898",
"J.	c #4A4A4A",
"K.	c #C1C1C1",
"L.	c #4B4B4B",
"M.	c #858585",
"N.	c #838383",
"O.	c #212121",
"P.	c #B2B2B2",
"Q.	c #6B6B6B",
"R.	c #555555",
"S.	c #414141",
"T.	c #4E4E4E",
"U.	c #3E3E3E",
"V.	c #797979",
"W.	c #C6C6C6",
"X.	c #999999",
"Y.	c #303030",
"Z.	c #424242",
"`.	c #D4D4D4",
" +	c #F1F1F1",
".+	c #A6A6A6",
"++	c #3B3B3B",
"                                                                      .                                                                       ",
"                                                                    . . .                                                                     ",
"                                                                    . . .                                                                     ",
"                                                                    . . .                                                                     ",
"                                                            . . . . . . . . . . .                                                             ",
"                                                          . . . . . . . . . . . . .                                                           ",
"                                                          . . . . . . . . . . . . .                                                           ",
"                                                                    . . . .                                                                   ",
"                                                                    . . .                                                                     ",
"                                                                    . . .                                                                     ",
"                                                                    . . .                                                                     ",
"                                                                    . . .                                                                     ",
"                                                                    . . . .                                                                   ",
"                                                                . . . . . . .                                                                 ",
"                                                              . . . . . . . . .                                                               ",
"                                                            . . . . + @ # . . . .                                                             ",
"                                                          . . . $ % & & & * = . . .                                                           ",
"                                                          . . . - & & & & & ; > . . .                                                         ",
"                                                        . . . , & & & & & & & ' . . .                                                         ",
"                                                        . . ) - & & & & & & & & ! . . .                                                       ",
"                          . . .                         . . ~ & & & & & & & & & & . . .                   . . . .                             ",
"                  . . . . . . . . . . . .             . . . { & & & & & & & & & & . . .           . . . . . . . . . . . . .                   ",
"              . . . . . . . . . . . . . . . .         . . . ] & & & & & & & & & & . . .     . . . . . . . . . . . . . . . . .                 ",
"            . . . . . ^ # / / / / ( $ . . . . . .       . . ~ & & & & & & & & & & . . . . . . . . . . _ : / / / / / < [ . . . . .             ",
"          . . . } | 1 & & & & & & & & 2 3 4 5 . . . .   . . ~ 1 & & & & & & & & 6 . . . . . . 7 8 9 & & & & & & & & & & 0 a . . . .           ",
"        . . . ~ b & & & & & & & & & & & & 2 c d . . . . . . e f & & & & & & & & g . . . . . h i j & & & & & & & & & & & & & k l . . .         ",
"      . . . m & & & & & & & & & & & & & & & & & n 7 . . . . . o & & & & & & & p . . . . q r & & & & & & & & & & & & & & & & & & s . . .       ",
"      . . ) & & & & & & & & & & & & & & & & & & & t ~ . . . . # & & & & & & & u . . . v 6 & & & & & & & & & & & & & & & & & & & w ! . . .     ",
"    . . . x & & & & & & & & & & & & & & & & & & & & & y . . . z & & & & & & A . . . . & & & & & & & & & & & & & & & & & & & & & & B . . .     ",
"  . . . m & & & & & & & & & & & & & & & & & & & & & & & ~ . . . C & & & & D . . . e j & & & & & & & & & & & & & & & & & & & & & & & E . . .   ",
"  . . . F & & & & & & & & & & & & & & & & & & & & & & & G H . . [ i & & & I . . . * & & & & & & & & & & & & & & & & & & & & & & & & J l . .   ",
"  . . K & & & & & & & & & & & & & & & & & & & & & & & & & & h . . m L & M . . s N & & & & & & & & & & & & & & & & & & & & & & & & & & ~ . .   ",
"  . . O & & & & & & & & & & & & & & & & & & & & & & & & & & P e . . Q & R . . E & & & & & & & & & & & & & & & & & & & & & & & & & & & ~ . . . ",
"  . . C & & & & & & & & & & & & & & & & & & & & & & & & & & & S . . z T . . m G & & & & & & & & & & & & & & & & & & & & & & & & & & & U . . . ",
"  . . C & & & & & & & & & & & & & & & & & & & & & & & & & & & & , . . . . . V & & & & & & & & & & & & & & & & & & & & & & & & & & & & W . . . ",
"  . . X & & & & & & & & & & & & & & & & & & & & & & & & & & & & Y Z . . . ! & & & & & & & & & & & & & & & & & & & & & & & & & & & & & ~ . . . ",
"  . . ` & & & & & & & & & & & & & & & & & & & & & & & & & & & & & o . . . x & & & & & & & & & & & & & & & & & & & & & & & & & & & & & ~ . .   ",
"  . . . & & & & & & & & & & & & & & & & & & & & & & & & & & & & & & . .  .' & & & & & & & & & & & & & & & & & & & & & & & & & & & & ..+.. .   ",
"  . . . @.& & & & & & & & & & & & & & & & & & & & & & & & & & & & & . . K t & & & & & & & & & & & & & & & & & & & & & & & & & & & & i . . .   ",
"    . . #.$.& & & & & & & & & & & & & & & & & & & & & & & & & & & & . . K %.& & & & & & & & & & & & & & & & & & & & & & & & & & & @ . . .     ",
"    . . . &.& & & & & & & & & & & & & & & & & & & & & & & & & & & & . . K %.& & & & & & & & & & & & & & & & & & & & & & & & & & & + . . .     ",
"      . . . @ & & & & & & & & & & & & & & & & & & & & & & & & & & & . . K %.& & & & & & & & & & & & & & & & & & & & & & & & & & i . . .       ",
"      . . . . *.& & & & & & & & & & & & & & & & & & & & & & & & & & . . K %.& & & & & & & & & & & & & & & & & & & & & & & & & =.. . . .       ",
"        . . . . @ & & & & & & & & & & & & & & & & & & & & & & & & & . . #.-.& & & & & & & & & & & & & & & & & & & & & & & & / . . . .         ",
"          . . . . ;.& & & & & & & & & & & & & & & >.,.'.| | | | | ).. . !.h | | | | ~.D {.& & & & & & & & & & & & & & & & ].. . . .           ",
"            . . . 7 V & & & & & & & & & & G ^.m m K /.. . . . . . . . . . . . . . . 5 s m m (.F & & & & & & & & & & & & , !.. . .             ",
"              . . . . h _.& & & & :.x <.z . . . . . . . . . . . . . . . . . . . . . . . . . . . . v [.c 2 & & & & & 6 }.. . . .               ",
"                . . . . |.).& 1.+.l . . . . . . . . . 2.3.4.F F F F F F F F F J %.5.[ . . . . . . . . 6.4 W & & & 7.8.. . . .                 ",
"                  . . . . . . . . . . . 8 9.9., 0.& & & & & & & & & & & & & & & & & & & & o = a.b.. . . . . !.( ~ . . . .                     ",
"                      . . . . . . . c.d.b & & & & & & & & & & & & & & & & & & & & & & & & & & 1 e.d.f.. . . . . . . . .                       ",
"                        . . . g.I & & & & & & & & & & & & & & & & & & & & & & & & & & & & & & & & & & & ~.h.7 . . . .                         ",
"                        . . . _.& & & & & & & & & & 1 J x Q i.i.i.i.i.i.i.i.i.i.j.k.{.& & & & & & & & & & l.m.. .                             ",
"                        . . . & & & & 1 f d.d.n.o.. . . . . . . . . . . . . . . . . . . . m.p.d.q.& & & & & r.. .                             ",
"                        . . . & & j s.~ t.. . . . . . . . . . . . . . . . . . . . . . . . . . . y ~ 3 G & & r.. .                             ",
"                        . . . u.v.. . . . . . . /.|.y y y v @.p.w.q.L e.x.y.z.A.y y y $  .. . . . . . . B.F C.. .                             ",
"                        . . . . . . . . . g.9 C u _.& & & & & & & & & & & & & & & & & 0.D.C C E.5 . . . . . . . .                             ",
"                        . . . . . q m z.& & & & & & & & & & & & & & & & & & & & & & & & & & & & & x.H F.!.. . . .                             ",
"                        . . . 4 G.y.& & & & & & & & & & & & & & & & & & & & & & & & & & & & & & & & & H.I.J.. . .                             ",
"                        . . . & & & & & & & & & & & & & & >.K.].r.L.[ Z ^ M.M D & & & & & & & & & & & & & & r.. .                             ",
"                        . . . & & & & & & B N.| ^ O.. . . . . . . . . . . . . . . . . 8.{ | | P.l.& & & & & r.. .                             ",
"                        . . . & & & L }.m  .. . . . . . . . . . . . . . . . . . . . . . . . . 7 m ! 1.& & & r.. .                             ",
"                        . . . ;.k s . . . . . . . . b.r r.r.r.r.r.r.r.r.r.r.r.r.r.Q.e d . . . . . . . 6.= @.R.. .                             ",
"                        . . . s . . . . . . S.V F F L p & & & & & & & & & & & & & p H.w F % = . . . . . . !.7 . .                             ",
"                        . . . . . 6.T.^ x.& & & & & & & & & & & & & & & & & & & & & & & & & & & * ).9.8.. . . . .                             ",
"                        . . . . . V * & & & & & & & & & & & & & & & & & & & & & & & & & & & & & & & & :.U.. . . .                             ",
"                        . . . . . . V.-.A & & & & & & & & & & & & & & & & & & & & & & & & & & & p W.X.. . . . . .                             ",
"                            . . . . . 5 Y.Z.u & & & & & & & & & & & & & & & & & & & & & & & `.v.U.6.. . . . .                                 ",
"                                . . . . . . . . } n.d.d.d.u. +l.{.& & & 1 2 $...d.d.d..+8 . . . . . . . .                                     ",
"                                      . . . . . . . . . . |.}.Q L.~ ~ ~ T.2.++B.. . . . . . . . . . .                                         ",
"                                          . . . . . . . . . . . . . . . . . . . . . . . . . . .                                               ",
"                                                    . . . . . . . . . . . . . . . . .                                                         "};
